<svg width="795" height="1024" viewBox="0 0 795 1024" fill="none" xmlns="http://www.w3.org/2000/svg">
<rect width="795" height="1024" fill="url(#paint0_radial_86_74)" fill-opacity="0.35"/>
<path d="M657 268C655.559 304.359 649.94 381.787 638.989 400.631C625.301 424.185 588.559 505.721 523 530" stroke="#575757" stroke-width="6" stroke-dasharray="12 12"/>
<path d="M471 473C481.686 480.102 506.846 500.845 522 527" stroke="#575757" stroke-width="6"/>
<path d="M145 741.603C174.762 715.861 244.014 666.855 272.76 668.02C301.506 669.186 262.839 764.431 241.183 813" stroke="#575757" stroke-width="6"/>
<circle cx="289.5" cy="656.5" r="17.5" stroke="#575757" stroke-width="6"/>
<circle cx="455.5" cy="460.5" r="17.5" stroke="#575757" stroke-width="6"/>
<path d="M306 646C350.374 607.543 456.097 529.902 524 527" stroke="#575757" stroke-width="6"/>
<path d="M121.626 772.848H118.017V762.666H121.656C122.68 762.666 123.562 762.87 124.301 763.278C125.04 763.682 125.609 764.264 126.006 765.023C126.407 765.782 126.608 766.69 126.608 767.747C126.608 768.808 126.407 769.719 126.006 770.482C125.609 771.244 125.037 771.829 124.291 772.237C123.549 772.644 122.661 772.848 121.626 772.848ZM120.17 771.004H121.537C122.173 771.004 122.709 770.891 123.143 770.666C123.58 770.437 123.908 770.084 124.127 769.607C124.349 769.126 124.46 768.506 124.46 767.747C124.46 766.995 124.349 766.38 124.127 765.903C123.908 765.426 123.582 765.074 123.148 764.849C122.714 764.623 122.178 764.511 121.542 764.511H120.17V771.004ZM131.04 772.992C130.553 772.992 130.119 772.908 129.738 772.739C129.357 772.566 129.055 772.313 128.833 771.978C128.614 771.64 128.505 771.219 128.505 770.715C128.505 770.291 128.583 769.935 128.739 769.646C128.894 769.358 129.106 769.126 129.375 768.95C129.643 768.775 129.948 768.642 130.29 768.553C130.634 768.463 130.996 768.4 131.373 768.364C131.818 768.317 132.176 768.274 132.447 768.235C132.719 768.191 132.916 768.128 133.039 768.046C133.162 767.963 133.223 767.84 133.223 767.678V767.648C133.223 767.333 133.123 767.089 132.925 766.917C132.729 766.745 132.451 766.659 132.089 766.659C131.708 766.659 131.405 766.743 131.18 766.912C130.954 767.078 130.805 767.287 130.732 767.538L128.773 767.379C128.873 766.915 129.068 766.514 129.36 766.176C129.652 765.835 130.028 765.573 130.489 765.391C130.953 765.205 131.49 765.112 132.099 765.112C132.524 765.112 132.93 765.162 133.317 765.261C133.708 765.361 134.055 765.515 134.356 765.724C134.661 765.933 134.902 766.201 135.077 766.529C135.253 766.854 135.341 767.244 135.341 767.698V772.848H133.332V771.789H133.273C133.15 772.028 132.986 772.238 132.78 772.421C132.575 772.6 132.328 772.74 132.04 772.843C131.751 772.943 131.418 772.992 131.04 772.992ZM131.647 771.531C131.958 771.531 132.234 771.469 132.472 771.347C132.711 771.221 132.898 771.052 133.034 770.84C133.17 770.628 133.238 770.387 133.238 770.119V769.308C133.172 769.351 133.08 769.391 132.964 769.428C132.852 769.461 132.724 769.492 132.582 769.522C132.439 769.549 132.297 769.574 132.154 769.597C132.012 769.617 131.882 769.635 131.766 769.651C131.518 769.688 131.301 769.746 131.115 769.825C130.929 769.905 130.785 770.013 130.682 770.149C130.58 770.281 130.528 770.447 130.528 770.646C130.528 770.934 130.633 771.154 130.842 771.307C131.054 771.456 131.322 771.531 131.647 771.531ZM139.802 768.433V772.848H137.684V765.212H139.702V766.559H139.792C139.961 766.115 140.244 765.764 140.642 765.505C141.04 765.243 141.522 765.112 142.089 765.112C142.619 765.112 143.081 765.228 143.476 765.46C143.87 765.692 144.177 766.024 144.396 766.455C144.614 766.882 144.724 767.393 144.724 767.986V772.848H142.606V768.364C142.609 767.896 142.49 767.532 142.248 767.27C142.006 767.005 141.673 766.872 141.249 766.872C140.964 766.872 140.712 766.934 140.493 767.056C140.277 767.179 140.108 767.358 139.986 767.593C139.866 767.825 139.805 768.105 139.802 768.433ZM150.543 772.997C149.761 772.997 149.088 772.832 148.525 772.5C147.965 772.165 147.534 771.701 147.232 771.108C146.934 770.515 146.785 769.832 146.785 769.06C146.785 768.278 146.935 767.592 147.237 767.002C147.542 766.408 147.975 765.946 148.535 765.614C149.095 765.28 149.761 765.112 150.533 765.112C151.199 765.112 151.783 765.233 152.283 765.475C152.784 765.717 153.18 766.057 153.471 766.494C153.763 766.932 153.924 767.446 153.954 768.036H151.955C151.899 767.654 151.75 767.348 151.508 767.116C151.269 766.881 150.956 766.763 150.568 766.763C150.24 766.763 149.953 766.852 149.708 767.031C149.466 767.207 149.277 767.464 149.141 767.802C149.005 768.14 148.937 768.549 148.937 769.03C148.937 769.517 149.004 769.931 149.136 770.273C149.272 770.614 149.463 770.874 149.708 771.053C149.953 771.232 150.24 771.322 150.568 771.322C150.81 771.322 151.027 771.272 151.219 771.173C151.415 771.073 151.576 770.929 151.702 770.74C151.831 770.548 151.915 770.318 151.955 770.049H153.954C153.921 770.632 153.761 771.146 153.476 771.59C153.195 772.031 152.805 772.376 152.308 772.624C151.811 772.873 151.223 772.997 150.543 772.997ZM159.49 772.997C158.704 772.997 158.028 772.838 157.461 772.52C156.898 772.199 156.464 771.744 156.159 771.158C155.854 770.568 155.701 769.87 155.701 769.065C155.701 768.279 155.854 767.59 156.159 766.997C156.464 766.403 156.893 765.941 157.447 765.61C158.003 765.278 158.656 765.112 159.405 765.112C159.909 765.112 160.378 765.194 160.812 765.356C161.25 765.515 161.631 765.755 161.956 766.077C162.284 766.398 162.539 766.803 162.721 767.29C162.904 767.774 162.995 768.341 162.995 768.99V769.572H156.547V768.259H161.001C161.001 767.954 160.935 767.684 160.802 767.449C160.67 767.214 160.486 767.03 160.25 766.897C160.018 766.761 159.748 766.693 159.44 766.693C159.119 766.693 158.834 766.768 158.585 766.917C158.34 767.063 158.148 767.26 158.008 767.509C157.869 767.754 157.798 768.027 157.795 768.329V769.577C157.795 769.955 157.864 770.281 158.003 770.556C158.146 770.831 158.346 771.043 158.605 771.193C158.863 771.342 159.17 771.416 159.525 771.416C159.76 771.416 159.975 771.383 160.171 771.317C160.366 771.251 160.534 771.151 160.673 771.019C160.812 770.886 160.918 770.724 160.991 770.531L162.95 770.661C162.851 771.131 162.647 771.542 162.339 771.894C162.034 772.242 161.639 772.513 161.155 772.709C160.675 772.901 160.12 772.997 159.49 772.997ZM171.431 767.389L169.492 767.509C169.459 767.343 169.387 767.194 169.278 767.061C169.169 766.925 169.024 766.818 168.845 766.738C168.67 766.655 168.459 766.614 168.214 766.614C167.886 766.614 167.609 766.683 167.384 766.823C167.158 766.958 167.046 767.141 167.046 767.369C167.046 767.552 167.119 767.706 167.264 767.832C167.41 767.958 167.66 768.059 168.015 768.135L169.397 768.413C170.14 768.566 170.693 768.811 171.058 769.149C171.422 769.487 171.605 769.931 171.605 770.482C171.605 770.982 171.457 771.421 171.162 771.799C170.87 772.177 170.469 772.472 169.959 772.684C169.452 772.893 168.867 772.997 168.204 772.997C167.193 772.997 166.388 772.787 165.788 772.366C165.191 771.942 164.842 771.365 164.739 770.636L166.822 770.526C166.885 770.835 167.037 771.07 167.279 771.232C167.521 771.391 167.831 771.471 168.209 771.471C168.58 771.471 168.879 771.4 169.104 771.257C169.333 771.111 169.449 770.924 169.452 770.695C169.449 770.503 169.367 770.346 169.208 770.223C169.049 770.097 168.804 770.001 168.473 769.935L167.15 769.671C166.404 769.522 165.849 769.264 165.485 768.896C165.123 768.528 164.943 768.059 164.943 767.489C164.943 766.998 165.075 766.576 165.34 766.221C165.609 765.866 165.985 765.593 166.469 765.401C166.956 765.208 167.526 765.112 168.179 765.112C169.144 765.112 169.903 765.316 170.456 765.724C171.013 766.132 171.338 766.687 171.431 767.389Z" fill="white"/>
<circle cx="145.385" cy="741.847" r="7.59602" fill="#030303"/>
<path d="M234.325 836.456V846.638H232.466L228.036 840.23H227.961V846.638H225.809V836.456H227.698L232.093 842.86H232.182V836.456H234.325ZM245.787 840.021H243.61C243.57 839.739 243.489 839.489 243.366 839.27C243.243 839.048 243.086 838.859 242.894 838.703C242.701 838.548 242.479 838.428 242.228 838.345C241.979 838.262 241.709 838.221 241.417 838.221C240.89 838.221 240.431 838.352 240.04 838.614C239.649 838.872 239.346 839.25 239.13 839.747C238.915 840.241 238.807 840.841 238.807 841.547C238.807 842.273 238.915 842.883 239.13 843.377C239.349 843.87 239.654 844.243 240.045 844.495C240.436 844.747 240.888 844.873 241.402 844.873C241.691 844.873 241.957 844.835 242.203 844.759C242.451 844.682 242.672 844.571 242.864 844.426C243.056 844.276 243.215 844.096 243.341 843.884C243.47 843.672 243.56 843.43 243.61 843.158L245.787 843.168C245.731 843.635 245.59 844.086 245.365 844.52C245.143 844.951 244.843 845.337 244.465 845.678C244.09 846.016 243.643 846.285 243.122 846.484C242.605 846.679 242.02 846.777 241.367 846.777C240.459 846.777 239.647 846.572 238.931 846.161C238.219 845.75 237.655 845.155 237.241 844.376C236.83 843.597 236.625 842.654 236.625 841.547C236.625 840.437 236.833 839.492 237.251 838.713C237.669 837.934 238.235 837.341 238.951 836.933C239.667 836.522 240.473 836.317 241.367 836.317C241.957 836.317 242.504 836.4 243.008 836.565C243.515 836.731 243.964 836.973 244.355 837.291C244.746 837.606 245.065 837.992 245.31 838.45C245.558 838.907 245.718 839.431 245.787 840.021ZM257.015 840.021H254.837C254.797 839.739 254.716 839.489 254.593 839.27C254.471 839.048 254.313 838.859 254.121 838.703C253.929 838.548 253.707 838.428 253.455 838.345C253.206 838.262 252.936 838.221 252.644 838.221C252.117 838.221 251.658 838.352 251.267 838.614C250.876 838.872 250.573 839.25 250.358 839.747C250.142 840.241 250.034 840.841 250.034 841.547C250.034 842.273 250.142 842.883 250.358 843.377C250.576 843.87 250.881 844.243 251.272 844.495C251.663 844.747 252.116 844.873 252.63 844.873C252.918 844.873 253.185 844.835 253.43 844.759C253.679 844.682 253.899 844.571 254.091 844.426C254.283 844.276 254.443 844.096 254.568 843.884C254.698 843.672 254.787 843.43 254.837 843.158L257.015 843.168C256.958 843.635 256.817 844.086 256.592 844.52C256.37 844.951 256.07 845.337 255.692 845.678C255.318 846.016 254.87 846.285 254.35 846.484C253.833 846.679 253.248 846.777 252.595 846.777C251.687 846.777 250.875 846.572 250.159 846.161C249.446 845.75 248.883 845.155 248.468 844.376C248.057 843.597 247.852 842.654 247.852 841.547C247.852 840.437 248.061 839.492 248.478 838.713C248.896 837.934 249.463 837.341 250.179 836.933C250.894 836.522 251.7 836.317 252.595 836.317C253.185 836.317 253.732 836.4 254.235 836.565C254.742 836.731 255.192 836.973 255.583 837.291C255.974 837.606 256.292 837.992 256.537 838.45C256.786 838.907 256.945 839.431 257.015 840.021Z" fill="white"/>
<circle cx="239.431" cy="812.02" r="7.59602" fill="#030303"/>
<path d="M125.129 258.596C151.052 284.639 208.54 338.897 231.111 347.578M231.111 347.578C286.454 314.3 305.263 317.556 384.117 335.28C414.501 373.621 440.544 418.353 441.268 448.496C416.671 460.312 329.691 460.573 318.285 456.454C266.198 437.645 239.069 395.324 231.111 347.578Z" stroke="#575757" stroke-width="6"/>
<path d="M511.888 550.701H514.543L517.347 557.542H517.466L520.27 550.701H522.925V560.883H520.837V554.256H520.752L518.117 560.833H516.695L514.061 554.231H513.976V560.883H511.888V550.701ZM528.839 561.032C528.053 561.032 527.377 560.873 526.81 560.555C526.247 560.233 525.813 559.779 525.508 559.192C525.203 558.603 525.05 557.905 525.05 557.099C525.05 556.314 525.203 555.625 525.508 555.031C525.813 554.438 526.242 553.976 526.795 553.644C527.352 553.313 528.005 553.147 528.754 553.147C529.258 553.147 529.727 553.228 530.161 553.391C530.599 553.55 530.98 553.79 531.305 554.112C531.633 554.433 531.888 554.837 532.07 555.325C532.253 555.808 532.344 556.375 532.344 557.025V557.607H525.896V556.294H530.35C530.35 555.989 530.284 555.719 530.151 555.484C530.019 555.248 529.835 555.064 529.599 554.932C529.367 554.796 529.097 554.728 528.789 554.728C528.468 554.728 528.183 554.803 527.934 554.952C527.689 555.098 527.496 555.295 527.357 555.543C527.218 555.789 527.147 556.062 527.143 556.364V557.612C527.143 557.989 527.213 558.316 527.352 558.591C527.495 558.866 527.695 559.078 527.954 559.227C528.212 559.376 528.519 559.451 528.874 559.451C529.109 559.451 529.324 559.418 529.52 559.352C529.715 559.285 529.883 559.186 530.022 559.053C530.161 558.921 530.267 558.758 530.34 558.566L532.299 558.695C532.2 559.166 531.996 559.577 531.688 559.928C531.383 560.276 530.988 560.548 530.504 560.744C530.024 560.936 529.469 561.032 528.839 561.032ZM494.535 572.792C494.535 571.559 494.699 570.424 495.027 569.386C495.359 568.349 495.864 567.388 496.544 566.503H498.567C498.309 566.831 498.068 567.232 497.846 567.706C497.624 568.177 497.43 568.694 497.265 569.257C497.099 569.821 496.97 570.404 496.877 571.007C496.784 571.607 496.738 572.202 496.738 572.792C496.738 573.577 496.817 574.371 496.976 575.173C497.139 575.972 497.357 576.714 497.633 577.401C497.911 578.087 498.222 578.648 498.567 579.086H496.544C495.864 578.201 495.359 577.24 495.027 576.202C494.699 575.165 494.535 574.028 494.535 572.792ZM500.148 569.476V567.701H508.511V569.476H505.393V577.883H503.266V569.476H500.148ZM512.891 578.032C512.119 578.032 511.451 577.868 510.887 577.54C510.327 577.208 509.895 576.748 509.59 576.158C509.285 575.564 509.132 574.877 509.132 574.094C509.132 573.306 509.285 572.616 509.59 572.026C509.895 571.433 510.327 570.972 510.887 570.644C511.451 570.313 512.119 570.147 512.891 570.147C513.663 570.147 514.329 570.313 514.889 570.644C515.453 570.972 515.887 571.433 516.192 572.026C516.497 572.616 516.649 573.306 516.649 574.094C516.649 574.877 516.497 575.564 516.192 576.158C515.887 576.748 515.453 577.208 514.889 577.54C514.329 577.868 513.663 578.032 512.891 578.032ZM512.901 576.391C513.252 576.391 513.545 576.292 513.781 576.093C514.016 575.891 514.193 575.616 514.313 575.268C514.435 574.92 514.497 574.524 514.497 574.08C514.497 573.635 514.435 573.239 514.313 572.891C514.193 572.543 514.016 572.268 513.781 572.066C513.545 571.864 513.252 571.763 512.901 571.763C512.546 571.763 512.248 571.864 512.006 572.066C511.767 572.268 511.587 572.543 511.464 572.891C511.345 573.239 511.285 573.635 511.285 574.08C511.285 574.524 511.345 574.92 511.464 575.268C511.587 575.616 511.767 575.891 512.006 576.093C512.248 576.292 512.546 576.391 512.901 576.391ZM521.54 578.007C520.96 578.007 520.435 577.858 519.964 577.56C519.497 577.258 519.126 576.816 518.851 576.232C518.579 575.646 518.443 574.926 518.443 574.075C518.443 573.2 518.584 572.472 518.866 571.892C519.147 571.309 519.522 570.873 519.989 570.585C520.46 570.293 520.975 570.147 521.535 570.147C521.963 570.147 522.319 570.22 522.604 570.366C522.893 570.508 523.125 570.687 523.3 570.903C523.479 571.115 523.615 571.324 523.708 571.529H523.773V567.701H525.886V577.883H523.797V576.66H523.708C523.609 576.872 523.468 577.082 523.285 577.291C523.106 577.497 522.873 577.667 522.584 577.803C522.299 577.939 521.951 578.007 521.54 578.007ZM522.212 576.322C522.553 576.322 522.841 576.229 523.077 576.043C523.315 575.854 523.498 575.591 523.623 575.253C523.753 574.915 523.817 574.519 523.817 574.065C523.817 573.611 523.754 573.216 523.628 572.881C523.503 572.547 523.32 572.288 523.082 572.106C522.843 571.924 522.553 571.832 522.212 571.832C521.864 571.832 521.57 571.927 521.332 572.116C521.093 572.305 520.912 572.567 520.79 572.901C520.667 573.236 520.606 573.624 520.606 574.065C520.606 574.509 520.667 574.902 520.79 575.243C520.916 575.581 521.096 575.846 521.332 576.038C521.57 576.227 521.864 576.322 522.212 576.322ZM530.504 578.027C530.017 578.027 529.583 577.942 529.202 577.773C528.821 577.601 528.519 577.348 528.297 577.013C528.078 576.675 527.969 576.254 527.969 575.75C527.969 575.326 528.047 574.969 528.203 574.681C528.358 574.393 528.57 574.161 528.839 573.985C529.107 573.809 529.412 573.677 529.754 573.587C530.098 573.498 530.46 573.435 530.838 573.398C531.282 573.352 531.64 573.309 531.911 573.269C532.183 573.226 532.38 573.163 532.503 573.08C532.626 572.997 532.687 572.875 532.687 572.712V572.683C532.687 572.368 532.588 572.124 532.389 571.952C532.193 571.779 531.915 571.693 531.553 571.693C531.172 571.693 530.869 571.778 530.644 571.947C530.418 572.112 530.269 572.321 530.196 572.573L528.237 572.414C528.337 571.95 528.532 571.549 528.824 571.211C529.116 570.87 529.492 570.608 529.953 570.425C530.417 570.24 530.954 570.147 531.563 570.147C531.988 570.147 532.394 570.197 532.781 570.296C533.173 570.396 533.519 570.55 533.82 570.759C534.125 570.967 534.366 571.236 534.541 571.564C534.717 571.889 534.805 572.278 534.805 572.732V577.883H532.796V576.824H532.737C532.614 577.062 532.45 577.273 532.244 577.455C532.039 577.634 531.792 577.775 531.504 577.878C531.215 577.977 530.882 578.027 530.504 578.027ZM531.111 576.565C531.423 576.565 531.698 576.504 531.936 576.381C532.175 576.255 532.362 576.086 532.498 575.874C532.634 575.662 532.702 575.422 532.702 575.153V574.343C532.636 574.386 532.544 574.426 532.428 574.462C532.316 574.496 532.188 574.527 532.046 574.557C531.903 574.583 531.761 574.608 531.618 574.631C531.476 574.651 531.346 574.67 531.23 574.686C530.982 574.723 530.765 574.781 530.579 574.86C530.393 574.94 530.249 575.047 530.146 575.183C530.044 575.316 529.992 575.482 529.992 575.68C529.992 575.969 530.097 576.189 530.306 576.342C530.518 576.491 530.786 576.565 531.111 576.565ZM538.182 580.746C537.914 580.746 537.662 580.725 537.426 580.682C537.194 580.642 537.002 580.591 536.85 580.528L537.327 578.947C537.576 579.023 537.799 579.064 537.998 579.071C538.2 579.078 538.374 579.031 538.52 578.932C538.669 578.832 538.79 578.663 538.883 578.425L539.007 578.102L536.268 570.246H538.495L540.076 575.854H540.156L541.752 570.246H543.994L541.026 578.708C540.883 579.119 540.689 579.477 540.444 579.782C540.202 580.09 539.896 580.327 539.524 580.493C539.153 580.662 538.706 580.746 538.182 580.746ZM549.347 573.801C549.347 575.037 549.182 576.174 548.85 577.212C548.522 578.249 548.018 579.21 547.339 580.095H545.315C545.574 579.767 545.814 579.366 546.036 578.892C546.258 578.418 546.452 577.901 546.618 577.341C546.784 576.777 546.913 576.194 547.006 575.591C547.098 574.988 547.145 574.391 547.145 573.801C547.145 573.016 547.064 572.223 546.901 571.425C546.742 570.623 546.523 569.88 546.245 569.197C545.97 568.511 545.66 567.95 545.315 567.512H547.339C548.018 568.397 548.522 569.358 548.85 570.396C549.182 571.433 549.347 572.568 549.347 573.801Z" fill="white"/>
<circle cx="522.292" cy="527.712" r="7.59602" fill="#030303"/>
<path d="M102.825 291.767V281.585H106.842C107.611 281.585 108.267 281.723 108.811 281.998C109.358 282.269 109.774 282.656 110.059 283.156C110.347 283.653 110.491 284.238 110.491 284.911C110.491 285.587 110.346 286.169 110.054 286.656C109.762 287.14 109.34 287.511 108.786 287.77C108.236 288.028 107.57 288.157 106.788 288.157H104.098V286.427H106.44C106.851 286.427 107.192 286.371 107.464 286.258C107.735 286.146 107.938 285.977 108.07 285.751C108.206 285.526 108.274 285.246 108.274 284.911C108.274 284.573 108.206 284.288 108.07 284.056C107.938 283.824 107.734 283.648 107.459 283.529C107.187 283.406 106.844 283.345 106.43 283.345H104.978V291.767H102.825ZM108.324 287.133L110.854 291.767H108.478L106.002 287.133H108.324ZM116 291.916C115.228 291.916 114.56 291.752 113.997 291.424C113.436 291.092 113.004 290.632 112.699 290.042C112.394 289.448 112.242 288.761 112.242 287.978C112.242 287.19 112.394 286.5 112.699 285.91C113.004 285.317 113.436 284.856 113.997 284.528C114.56 284.197 115.228 284.031 116 284.031C116.772 284.031 117.439 284.197 117.999 284.528C118.562 284.856 118.996 285.317 119.301 285.91C119.606 286.5 119.759 287.19 119.759 287.978C119.759 288.761 119.606 289.448 119.301 290.042C118.996 290.632 118.562 291.092 117.999 291.424C117.439 291.752 116.772 291.916 116 291.916ZM116.01 290.275C116.361 290.275 116.655 290.176 116.89 289.977C117.125 289.775 117.303 289.5 117.422 289.152C117.545 288.804 117.606 288.408 117.606 287.964C117.606 287.519 117.545 287.123 117.422 286.775C117.303 286.427 117.125 286.152 116.89 285.95C116.655 285.748 116.361 285.647 116.01 285.647C115.655 285.647 115.357 285.748 115.115 285.95C114.877 286.152 114.696 286.427 114.573 286.775C114.454 287.123 114.394 287.519 114.394 287.964C114.394 288.408 114.454 288.804 114.573 289.152C114.696 289.5 114.877 289.775 115.115 289.977C115.357 290.176 115.655 290.275 116.01 290.275ZM121.876 291.767V281.585H123.993V285.413H124.058C124.151 285.208 124.285 284.999 124.461 284.787C124.64 284.571 124.872 284.392 125.157 284.25C125.445 284.104 125.803 284.031 126.231 284.031C126.788 284.031 127.301 284.177 127.772 284.469C128.243 284.757 128.619 285.193 128.9 285.776C129.182 286.356 129.323 287.084 129.323 287.959C129.323 288.81 129.185 289.53 128.91 290.116C128.639 290.7 128.267 291.142 127.797 291.444C127.329 291.742 126.806 291.891 126.226 291.891C125.815 291.891 125.465 291.823 125.177 291.687C124.892 291.551 124.658 291.381 124.476 291.175C124.293 290.966 124.154 290.756 124.058 290.544H123.964V291.767H121.876ZM123.949 287.949C123.949 288.403 124.012 288.799 124.138 289.137C124.264 289.475 124.446 289.738 124.685 289.927C124.923 290.113 125.213 290.206 125.555 290.206C125.899 290.206 126.191 290.111 126.43 289.922C126.668 289.73 126.849 289.465 126.971 289.127C127.097 288.786 127.16 288.393 127.16 287.949C127.16 287.508 127.099 287.12 126.976 286.785C126.854 286.451 126.673 286.189 126.435 286C126.196 285.811 125.903 285.716 125.555 285.716C125.21 285.716 124.918 285.808 124.68 285.99C124.444 286.172 124.264 286.431 124.138 286.765C124.012 287.1 123.949 287.495 123.949 287.949ZM133.554 281.585V291.767H131.436V281.585H133.554ZM139.401 291.916C138.629 291.916 137.961 291.752 137.397 291.424C136.837 291.092 136.405 290.632 136.1 290.042C135.795 289.448 135.642 288.761 135.642 287.978C135.642 287.19 135.795 286.5 136.1 285.91C136.405 285.317 136.837 284.856 137.397 284.528C137.961 284.197 138.629 284.031 139.401 284.031C140.173 284.031 140.839 284.197 141.4 284.528C141.963 284.856 142.397 285.317 142.702 285.91C143.007 286.5 143.159 287.19 143.159 287.978C143.159 288.761 143.007 289.448 142.702 290.042C142.397 290.632 141.963 291.092 141.4 291.424C140.839 291.752 140.173 291.916 139.401 291.916ZM139.411 290.275C139.762 290.275 140.056 290.176 140.291 289.977C140.526 289.775 140.703 289.5 140.823 289.152C140.945 288.804 141.007 288.408 141.007 287.964C141.007 287.519 140.945 287.123 140.823 286.775C140.703 286.427 140.526 286.152 140.291 285.95C140.056 285.748 139.762 285.647 139.411 285.647C139.056 285.647 138.758 285.748 138.516 285.95C138.277 286.152 138.097 286.427 137.974 286.775C137.855 287.123 137.795 287.519 137.795 287.964C137.795 288.408 137.855 288.804 137.974 289.152C138.097 289.5 138.277 289.775 138.516 289.977C138.758 290.176 139.056 290.275 139.411 290.275ZM146.733 284.13L148.135 286.8L149.572 284.13H151.744L149.532 287.949L151.804 291.767H149.641L148.135 289.127L146.653 291.767H144.466L146.733 287.949L144.546 284.13H146.733Z" fill="white"/>
<circle cx="125.129" cy="258.596" r="7.59602" fill="#030303"/>
<path d="M206.058 374.132H203.881C203.841 373.85 203.76 373.6 203.637 373.381C203.514 373.159 203.357 372.97 203.165 372.814C202.973 372.658 202.75 372.539 202.499 372.456C202.25 372.373 201.98 372.332 201.688 372.332C201.161 372.332 200.702 372.463 200.311 372.725C199.92 372.983 199.617 373.361 199.401 373.858C199.186 374.352 199.078 374.952 199.078 375.658C199.078 376.384 199.186 376.994 199.401 377.487C199.62 377.981 199.925 378.354 200.316 378.606C200.707 378.858 201.16 378.984 201.673 378.984C201.962 378.984 202.228 378.946 202.474 378.87C202.722 378.793 202.943 378.682 203.135 378.536C203.327 378.387 203.486 378.207 203.612 377.995C203.741 377.782 203.831 377.54 203.881 377.269L206.058 377.279C206.002 377.746 205.861 378.197 205.636 378.631C205.414 379.062 205.114 379.448 204.736 379.789C204.361 380.127 203.914 380.396 203.393 380.595C202.876 380.79 202.291 380.888 201.638 380.888C200.73 380.888 199.918 380.682 199.202 380.272C198.49 379.861 197.926 379.266 197.512 378.487C197.101 377.708 196.896 376.765 196.896 375.658C196.896 374.548 197.104 373.603 197.522 372.824C197.94 372.045 198.506 371.452 199.222 371.044C199.938 370.633 200.744 370.428 201.638 370.428C202.228 370.428 202.775 370.511 203.279 370.676C203.786 370.842 204.235 371.084 204.626 371.402C205.018 371.717 205.336 372.103 205.581 372.561C205.83 373.018 205.989 373.542 206.058 374.132ZM211.712 380.898C210.94 380.898 210.272 380.734 209.709 380.406C209.149 380.074 208.716 379.614 208.411 379.024C208.106 378.43 207.954 377.743 207.954 376.96C207.954 376.172 208.106 375.482 208.411 374.892C208.716 374.299 209.149 373.838 209.709 373.51C210.272 373.179 210.94 373.013 211.712 373.013C212.485 373.013 213.151 373.179 213.711 373.51C214.274 373.838 214.709 374.299 215.014 374.892C215.318 375.482 215.471 376.172 215.471 376.96C215.471 377.743 215.318 378.43 215.014 379.024C214.709 379.614 214.274 380.074 213.711 380.406C213.151 380.734 212.485 380.898 211.712 380.898ZM211.722 379.257C212.074 379.257 212.367 379.158 212.602 378.959C212.838 378.757 213.015 378.482 213.134 378.134C213.257 377.786 213.318 377.39 213.318 376.946C213.318 376.501 213.257 376.105 213.134 375.757C213.015 375.409 212.838 375.134 212.602 374.932C212.367 374.73 212.074 374.629 211.722 374.629C211.368 374.629 211.069 374.73 210.827 374.932C210.589 375.134 210.408 375.409 210.286 375.757C210.166 376.105 210.107 376.501 210.107 376.946C210.107 377.39 210.166 377.786 210.286 378.134C210.408 378.482 210.589 378.757 210.827 378.959C211.069 379.158 211.368 379.257 211.722 379.257ZM217.548 380.749V373.112H219.567V374.46H219.656C219.815 374.012 220.08 373.659 220.451 373.401C220.823 373.142 221.267 373.013 221.784 373.013C222.308 373.013 222.753 373.144 223.121 373.406C223.489 373.664 223.734 374.016 223.857 374.46H223.937C224.092 374.022 224.374 373.673 224.782 373.411C225.193 373.146 225.678 373.013 226.238 373.013C226.951 373.013 227.529 373.24 227.974 373.694C228.421 374.145 228.645 374.785 228.645 375.613V380.749H226.532V376.031C226.532 375.606 226.419 375.288 226.194 375.076C225.968 374.864 225.687 374.758 225.349 374.758C224.964 374.758 224.664 374.881 224.449 375.126C224.233 375.368 224.125 375.688 224.125 376.085V380.749H222.072V375.986C222.072 375.611 221.965 375.313 221.749 375.091C221.537 374.869 221.257 374.758 220.909 374.758C220.674 374.758 220.461 374.818 220.273 374.937C220.087 375.053 219.939 375.217 219.83 375.429C219.721 375.638 219.666 375.883 219.666 376.165V380.749H217.548ZM231.018 383.612V373.112H233.106V374.395H233.2C233.293 374.19 233.427 373.981 233.603 373.769C233.782 373.553 234.014 373.374 234.299 373.232C234.587 373.086 234.945 373.013 235.373 373.013C235.93 373.013 236.443 373.159 236.914 373.45C237.385 373.739 237.761 374.175 238.042 374.758C238.324 375.338 238.465 376.066 238.465 376.941C238.465 377.792 238.328 378.512 238.052 379.098C237.781 379.682 237.409 380.124 236.939 380.426C236.471 380.724 235.948 380.873 235.368 380.873C234.957 380.873 234.607 380.805 234.319 380.669C234.034 380.533 233.8 380.363 233.618 380.157C233.435 379.948 233.296 379.738 233.2 379.526H233.136V383.612H231.018ZM233.091 376.931C233.091 377.385 233.154 377.781 233.28 378.119C233.406 378.457 233.588 378.72 233.827 378.909C234.065 379.095 234.355 379.188 234.697 379.188C235.041 379.188 235.333 379.093 235.572 378.904C235.81 378.712 235.991 378.447 236.113 378.109C236.239 377.767 236.302 377.375 236.302 376.931C236.302 376.49 236.241 376.102 236.118 375.767C235.996 375.432 235.815 375.171 235.577 374.982C235.338 374.793 235.045 374.698 234.697 374.698C234.352 374.698 234.06 374.789 233.822 374.972C233.586 375.154 233.406 375.413 233.28 375.747C233.154 376.082 233.091 376.477 233.091 376.931ZM245.474 377.497V373.112H247.592V380.749H245.559V379.362H245.479C245.307 379.809 245.02 380.169 244.619 380.441C244.221 380.712 243.736 380.848 243.162 380.848C242.652 380.848 242.203 380.732 241.815 380.5C241.427 380.268 241.124 379.938 240.905 379.511C240.69 379.083 240.58 378.571 240.577 377.975V373.112H242.695V377.597C242.698 378.048 242.819 378.404 243.058 378.666C243.296 378.928 243.616 379.058 244.017 379.058C244.273 379.058 244.511 379 244.733 378.884C244.955 378.765 245.134 378.589 245.27 378.357C245.409 378.125 245.477 377.839 245.474 377.497ZM254.048 373.112V374.703H249.449V373.112H254.048ZM250.493 371.283H252.611V378.402C252.611 378.598 252.641 378.75 252.7 378.86C252.76 378.966 252.843 379.04 252.949 379.083C253.058 379.126 253.184 379.148 253.327 379.148C253.426 379.148 253.526 379.14 253.625 379.123C253.725 379.103 253.801 379.088 253.854 379.078L254.187 380.654C254.081 380.687 253.932 380.726 253.74 380.769C253.547 380.815 253.314 380.843 253.039 380.853C252.528 380.873 252.081 380.805 251.696 380.649C251.315 380.494 251.018 380.252 250.806 379.923C250.594 379.595 250.49 379.181 250.493 378.681V371.283ZM259.525 380.898C258.74 380.898 258.064 380.739 257.497 380.421C256.934 380.099 256.499 379.645 256.194 379.058C255.89 378.468 255.737 377.771 255.737 376.965C255.737 376.18 255.89 375.49 256.194 374.897C256.499 374.304 256.929 373.842 257.482 373.51C258.039 373.179 258.692 373.013 259.441 373.013C259.945 373.013 260.414 373.094 260.848 373.257C261.285 373.416 261.667 373.656 261.991 373.977C262.319 374.299 262.575 374.703 262.757 375.191C262.939 375.674 263.03 376.241 263.03 376.891V377.473H256.582V376.16H261.037C261.037 375.855 260.971 375.585 260.838 375.35C260.705 375.114 260.521 374.93 260.286 374.798C260.054 374.662 259.784 374.594 259.476 374.594C259.154 374.594 258.869 374.669 258.621 374.818C258.375 374.964 258.183 375.161 258.044 375.409C257.905 375.655 257.833 375.928 257.83 376.23V377.477C257.83 377.855 257.9 378.182 258.039 378.457C258.181 378.732 258.382 378.944 258.641 379.093C258.899 379.242 259.206 379.317 259.56 379.317C259.796 379.317 260.011 379.284 260.207 379.218C260.402 379.151 260.569 379.052 260.709 378.919C260.848 378.787 260.954 378.624 261.027 378.432L262.986 378.561C262.886 379.032 262.682 379.443 262.374 379.794C262.069 380.142 261.675 380.414 261.191 380.61C260.71 380.802 260.155 380.898 259.525 380.898ZM265.113 380.749V373.112H267.166V374.445H267.245C267.385 373.971 267.618 373.613 267.946 373.371C268.274 373.126 268.652 373.003 269.08 373.003C269.186 373.003 269.3 373.01 269.423 373.023C269.546 373.036 269.653 373.054 269.746 373.078V374.957C269.647 374.927 269.509 374.901 269.333 374.877C269.158 374.854 268.997 374.843 268.851 374.843C268.54 374.843 268.261 374.91 268.016 375.046C267.774 375.179 267.582 375.365 267.439 375.603C267.3 375.842 267.23 376.117 267.23 376.428V380.749H265.113ZM207.998 390.495C207.959 390.094 207.788 389.783 207.486 389.561C207.185 389.339 206.775 389.227 206.258 389.227C205.907 389.227 205.61 389.277 205.368 389.377C205.126 389.473 204.941 389.607 204.812 389.779C204.686 389.952 204.623 390.147 204.623 390.366C204.616 390.548 204.654 390.707 204.737 390.843C204.823 390.979 204.941 391.097 205.09 391.196C205.239 391.292 205.412 391.377 205.607 391.45C205.803 391.519 206.011 391.579 206.233 391.629L207.148 391.848C207.592 391.947 208 392.08 208.371 392.245C208.742 392.411 209.064 392.615 209.336 392.857C209.608 393.099 209.818 393.384 209.967 393.712C210.12 394.04 210.198 394.416 210.201 394.84C210.198 395.464 210.038 396.004 209.724 396.461C209.412 396.915 208.961 397.268 208.371 397.52C207.785 397.769 207.077 397.893 206.248 397.893C205.426 397.893 204.711 397.767 204.101 397.515C203.494 397.263 203.02 396.89 202.679 396.397C202.341 395.899 202.163 395.285 202.147 394.552H204.23C204.253 394.893 204.351 395.178 204.523 395.407C204.699 395.633 204.933 395.803 205.224 395.919C205.519 396.032 205.852 396.088 206.224 396.088C206.588 396.088 206.905 396.035 207.173 395.929C207.445 395.823 207.655 395.676 207.805 395.487C207.954 395.298 208.028 395.081 208.028 394.835C208.028 394.607 207.96 394.414 207.824 394.259C207.692 394.103 207.496 393.97 207.238 393.861C206.983 393.752 206.669 393.652 206.298 393.563L205.189 393.284C204.331 393.075 203.653 392.749 203.156 392.305C202.659 391.861 202.412 391.263 202.415 390.51C202.412 389.894 202.576 389.355 202.907 388.894C203.242 388.434 203.701 388.074 204.285 387.816C204.868 387.557 205.531 387.428 206.273 387.428C207.029 387.428 207.689 387.557 208.252 387.816C208.819 388.074 209.26 388.434 209.574 388.894C209.889 389.355 210.052 389.889 210.062 390.495H207.998ZM215.759 397.898C214.977 397.898 214.304 397.732 213.741 397.401C213.181 397.066 212.75 396.602 212.448 396.009C212.15 395.415 212.001 394.733 212.001 393.96C212.001 393.178 212.152 392.492 212.453 391.902C212.758 391.309 213.191 390.847 213.751 390.515C214.311 390.18 214.977 390.013 215.749 390.013C216.416 390.013 216.999 390.134 217.499 390.376C218 390.618 218.396 390.958 218.688 391.395C218.979 391.833 219.14 392.346 219.17 392.936H217.171C217.115 392.555 216.966 392.249 216.724 392.017C216.485 391.781 216.172 391.664 215.784 391.664C215.456 391.664 215.169 391.753 214.924 391.932C214.682 392.108 214.493 392.365 214.357 392.703C214.221 393.041 214.153 393.45 214.153 393.931C214.153 394.418 214.22 394.832 214.352 395.173C214.488 395.515 214.679 395.775 214.924 395.954C215.169 396.133 215.456 396.223 215.784 396.223C216.026 396.223 216.243 396.173 216.435 396.073C216.631 395.974 216.792 395.83 216.918 395.641C217.047 395.449 217.131 395.218 217.171 394.95H219.17C219.137 395.533 218.978 396.047 218.693 396.491C218.411 396.932 218.021 397.276 217.524 397.525C217.027 397.774 216.439 397.898 215.759 397.898ZM221.226 397.749V390.112H223.344V397.749H221.226ZM222.29 389.128C221.975 389.128 221.705 389.024 221.479 388.815C221.257 388.603 221.146 388.349 221.146 388.054C221.146 387.763 221.257 387.512 221.479 387.303C221.705 387.091 221.975 386.985 222.29 386.985C222.605 386.985 222.873 387.091 223.095 387.303C223.321 387.512 223.433 387.763 223.433 388.054C223.433 388.349 223.321 388.603 223.095 388.815C222.873 389.024 222.605 389.128 222.29 389.128ZM229.22 397.898C228.435 397.898 227.759 397.739 227.192 397.421C226.629 397.099 226.194 396.645 225.889 396.058C225.584 395.468 225.432 394.771 225.432 393.965C225.432 393.18 225.584 392.49 225.889 391.897C226.194 391.304 226.624 390.842 227.177 390.51C227.734 390.179 228.387 390.013 229.136 390.013C229.64 390.013 230.109 390.094 230.543 390.257C230.98 390.416 231.361 390.656 231.686 390.977C232.014 391.299 232.27 391.703 232.452 392.191C232.634 392.674 232.725 393.241 232.725 393.891V394.473H226.277V393.16H230.732C230.732 392.855 230.665 392.585 230.533 392.35C230.4 392.114 230.216 391.93 229.981 391.798C229.749 391.662 229.479 391.594 229.171 391.594C228.849 391.594 228.564 391.669 228.316 391.818C228.07 391.964 227.878 392.161 227.739 392.409C227.6 392.655 227.528 392.928 227.525 393.23V394.477C227.525 394.855 227.595 395.182 227.734 395.457C227.876 395.732 228.077 395.944 228.335 396.093C228.594 396.242 228.901 396.317 229.255 396.317C229.491 396.317 229.706 396.284 229.901 396.218C230.097 396.151 230.264 396.052 230.404 395.919C230.543 395.787 230.649 395.624 230.722 395.432L232.681 395.561C232.581 396.032 232.377 396.443 232.069 396.794C231.764 397.142 231.37 397.414 230.886 397.61C230.405 397.802 229.85 397.898 229.22 397.898ZM236.925 393.334V397.749H234.807V390.112H236.826V391.46H236.915C237.084 391.016 237.368 390.664 237.766 390.406C238.163 390.144 238.646 390.013 239.212 390.013C239.743 390.013 240.205 390.129 240.599 390.361C240.994 390.593 241.3 390.924 241.519 391.355C241.738 391.783 241.847 392.293 241.847 392.887V397.749H239.729V393.264C239.733 392.797 239.613 392.432 239.371 392.171C239.129 391.906 238.796 391.773 238.372 391.773C238.087 391.773 237.835 391.834 237.616 391.957C237.401 392.08 237.232 392.258 237.109 392.494C236.99 392.726 236.929 393.006 236.925 393.334ZM247.667 397.898C246.885 397.898 246.212 397.732 245.648 397.401C245.088 397.066 244.657 396.602 244.356 396.009C244.057 395.415 243.908 394.733 243.908 393.96C243.908 393.178 244.059 392.492 244.361 391.902C244.666 391.309 245.098 390.847 245.658 390.515C246.218 390.18 246.885 390.013 247.657 390.013C248.323 390.013 248.906 390.134 249.407 390.376C249.907 390.618 250.303 390.958 250.595 391.395C250.887 391.833 251.047 392.346 251.077 392.936H249.079C249.022 392.555 248.873 392.249 248.631 392.017C248.393 391.781 248.079 391.664 247.692 391.664C247.363 391.664 247.077 391.753 246.831 391.932C246.59 392.108 246.401 392.365 246.265 392.703C246.129 393.041 246.061 393.45 246.061 393.931C246.061 394.418 246.127 394.832 246.26 395.173C246.396 395.515 246.586 395.775 246.831 395.954C247.077 396.133 247.363 396.223 247.692 396.223C247.934 396.223 248.151 396.173 248.343 396.073C248.538 395.974 248.699 395.83 248.825 395.641C248.954 395.449 249.039 395.218 249.079 394.95H251.077C251.044 395.533 250.885 396.047 250.6 396.491C250.318 396.932 249.929 397.276 249.432 397.525C248.934 397.774 248.346 397.898 247.667 397.898ZM256.613 397.898C255.828 397.898 255.152 397.739 254.585 397.421C254.021 397.099 253.587 396.645 253.282 396.058C252.977 395.468 252.825 394.771 252.825 393.965C252.825 393.18 252.977 392.49 253.282 391.897C253.587 391.304 254.017 390.842 254.57 390.51C255.127 390.179 255.78 390.013 256.529 390.013C257.033 390.013 257.502 390.094 257.936 390.257C258.373 390.416 258.754 390.656 259.079 390.977C259.407 391.299 259.663 391.703 259.845 392.191C260.027 392.674 260.118 393.241 260.118 393.891V394.473H253.67V393.16H258.125C258.125 392.855 258.058 392.585 257.926 392.35C257.793 392.114 257.609 391.93 257.374 391.798C257.142 391.662 256.872 391.594 256.564 391.594C256.242 391.594 255.957 391.669 255.709 391.818C255.463 391.964 255.271 392.161 255.132 392.409C254.993 392.655 254.921 392.928 254.918 393.23V394.477C254.918 394.855 254.988 395.182 255.127 395.457C255.269 395.732 255.47 395.944 255.728 396.093C255.987 396.242 256.294 396.317 256.648 396.317C256.883 396.317 257.099 396.284 257.294 396.218C257.49 396.151 257.657 396.052 257.797 395.919C257.936 395.787 258.042 395.624 258.115 395.432L260.074 395.561C259.974 396.032 259.77 396.443 259.462 396.794C259.157 397.142 258.763 397.414 258.279 397.61C257.798 397.802 257.243 397.898 256.613 397.898Z" fill="white"/>
<circle cx="231.472" cy="347.578" r="7.59602" fill="#030303"/>
<path d="M354.481 360.043V358.269H362.843V360.043H359.726V368.45H357.598V360.043H354.481ZM367.253 368.6C366.468 368.6 365.792 368.44 365.225 368.122C364.662 367.801 364.227 367.347 363.922 366.76C363.618 366.17 363.465 365.472 363.465 364.667C363.465 363.882 363.618 363.192 363.922 362.599C364.227 362.006 364.657 361.543 365.21 361.212C365.767 360.88 366.42 360.715 367.169 360.715C367.673 360.715 368.142 360.796 368.576 360.958C369.013 361.117 369.394 361.358 369.719 361.679C370.047 362.001 370.303 362.405 370.485 362.892C370.667 363.376 370.758 363.943 370.758 364.592V365.174H364.31V363.862H368.765C368.765 363.557 368.698 363.287 368.566 363.051C368.433 362.816 368.249 362.632 368.014 362.499C367.782 362.364 367.512 362.296 367.204 362.296C366.882 362.296 366.597 362.37 366.349 362.519C366.103 362.665 365.911 362.862 365.772 363.111C365.633 363.356 365.561 363.63 365.558 363.931V365.179C365.558 365.557 365.628 365.883 365.767 366.159C365.909 366.434 366.11 366.646 366.368 366.795C366.627 366.944 366.934 367.019 367.288 367.019C367.524 367.019 367.739 366.985 367.934 366.919C368.13 366.853 368.297 366.753 368.437 366.621C368.576 366.488 368.682 366.326 368.755 366.134L370.714 366.263C370.614 366.734 370.41 367.145 370.102 367.496C369.797 367.844 369.403 368.116 368.919 368.311C368.438 368.503 367.883 368.6 367.253 368.6ZM379.194 362.992L377.255 363.111C377.222 362.945 377.151 362.796 377.041 362.664C376.932 362.528 376.788 362.42 376.609 362.34C376.433 362.257 376.223 362.216 375.978 362.216C375.649 362.216 375.373 362.286 375.147 362.425C374.922 362.561 374.809 362.743 374.809 362.972C374.809 363.154 374.882 363.308 375.028 363.434C375.174 363.56 375.424 363.661 375.779 363.737L377.161 364.016C377.903 364.168 378.457 364.414 378.821 364.752C379.186 365.09 379.368 365.534 379.368 366.084C379.368 366.584 379.221 367.024 378.926 367.401C378.634 367.779 378.233 368.074 377.723 368.286C377.215 368.495 376.63 368.6 375.968 368.6C374.957 368.6 374.151 368.389 373.551 367.968C372.955 367.544 372.605 366.967 372.502 366.238L374.585 366.129C374.648 366.437 374.801 366.672 375.043 366.835C375.285 366.994 375.595 367.073 375.973 367.073C376.344 367.073 376.642 367.002 376.867 366.86C377.096 366.714 377.212 366.526 377.215 366.298C377.212 366.106 377.131 365.948 376.972 365.825C376.813 365.699 376.568 365.603 376.236 365.537L374.914 365.274C374.168 365.124 373.613 364.866 373.248 364.498C372.887 364.13 372.706 363.661 372.706 363.091C372.706 362.601 372.839 362.178 373.104 361.823C373.372 361.469 373.749 361.195 374.233 361.003C374.72 360.811 375.29 360.715 375.943 360.715C376.907 360.715 377.666 360.918 378.22 361.326C378.777 361.734 379.101 362.289 379.194 362.992ZM385.464 360.814V362.405H380.865V360.814H385.464ZM381.909 358.985H384.027V366.104C384.027 366.299 384.057 366.452 384.116 366.561C384.176 366.667 384.259 366.742 384.365 366.785C384.474 366.828 384.6 366.85 384.743 366.85C384.842 366.85 384.942 366.841 385.041 366.825C385.14 366.805 385.217 366.79 385.27 366.78L385.603 368.356C385.497 368.389 385.348 368.427 385.155 368.47C384.963 368.517 384.729 368.545 384.454 368.555C383.944 368.575 383.496 368.507 383.112 368.351C382.731 368.195 382.434 367.953 382.222 367.625C382.01 367.297 381.906 366.883 381.909 366.382V358.985ZM387.543 368.45V360.814H389.661V368.45H387.543ZM388.607 359.83C388.292 359.83 388.022 359.725 387.797 359.516C387.575 359.304 387.464 359.051 387.464 358.756C387.464 358.464 387.575 358.214 387.797 358.005C388.022 357.793 388.292 357.687 388.607 357.687C388.922 357.687 389.19 357.793 389.413 358.005C389.638 358.214 389.751 358.464 389.751 358.756C389.751 359.051 389.638 359.304 389.413 359.516C389.19 359.725 388.922 359.83 388.607 359.83ZM394.176 364.036V368.45H392.058V360.814H394.076V362.161H394.166C394.335 361.717 394.618 361.366 395.016 361.107C395.413 360.846 395.896 360.715 396.462 360.715C396.993 360.715 397.455 360.831 397.85 361.063C398.244 361.295 398.551 361.626 398.769 362.057C398.988 362.485 399.097 362.995 399.097 363.588V368.45H396.98V363.966C396.983 363.499 396.864 363.134 396.622 362.872C396.38 362.607 396.047 362.475 395.622 362.475C395.337 362.475 395.085 362.536 394.867 362.659C394.651 362.781 394.482 362.96 394.359 363.195C394.24 363.427 394.179 363.708 394.176 364.036ZM404.907 371.473C404.221 371.473 403.633 371.379 403.142 371.19C402.655 371.004 402.267 370.751 401.979 370.429C401.69 370.108 401.503 369.746 401.417 369.345L403.376 369.082C403.435 369.234 403.53 369.377 403.659 369.509C403.788 369.642 403.959 369.748 404.171 369.828C404.387 369.91 404.648 369.952 404.957 369.952C405.417 369.952 405.797 369.839 406.095 369.614C406.397 369.392 406.548 369.019 406.548 368.495V367.098H406.458C406.365 367.31 406.226 367.511 406.041 367.7C405.855 367.889 405.616 368.043 405.325 368.162C405.033 368.281 404.685 368.341 404.281 368.341C403.707 368.341 403.185 368.208 402.715 367.943C402.247 367.675 401.874 367.266 401.596 366.715C401.321 366.162 401.183 365.463 401.183 364.617C401.183 363.752 401.324 363.03 401.606 362.45C401.888 361.87 402.262 361.436 402.729 361.147C403.2 360.859 403.715 360.715 404.276 360.715C404.703 360.715 405.061 360.788 405.349 360.933C405.638 361.076 405.87 361.255 406.045 361.47C406.224 361.682 406.362 361.891 406.458 362.097H406.538V360.814H408.641V368.525C408.641 369.175 408.482 369.718 408.163 370.156C407.845 370.593 407.404 370.921 406.841 371.14C406.281 371.362 405.636 371.473 404.907 371.473ZM404.952 366.75C405.293 366.75 405.581 366.666 405.817 366.497C406.055 366.324 406.238 366.079 406.364 365.761C406.493 365.439 406.558 365.055 406.558 364.607C406.558 364.16 406.495 363.772 406.369 363.444C406.243 363.113 406.06 362.856 405.822 362.673C405.583 362.491 405.293 362.4 404.952 362.4C404.604 362.4 404.31 362.494 404.072 362.683C403.833 362.869 403.652 363.128 403.53 363.459C403.407 363.79 403.346 364.173 403.346 364.607C403.346 365.048 403.407 365.429 403.53 365.751C403.656 366.069 403.836 366.316 404.072 366.492C404.31 366.664 404.604 366.75 404.952 366.75ZM415.784 363.429V365.11H411.14V363.429H415.784ZM361.453 385.45V375.269H363.571V379.097H363.636C363.729 378.891 363.863 378.682 364.039 378.47C364.217 378.255 364.449 378.076 364.735 377.933C365.023 377.788 365.381 377.715 365.808 377.715C366.365 377.715 366.879 377.86 367.35 378.152C367.82 378.44 368.196 378.876 368.478 379.46C368.76 380.04 368.901 380.767 368.901 381.642C368.901 382.494 368.763 383.213 368.488 383.8C368.216 384.383 367.845 384.826 367.374 385.127C366.907 385.426 366.383 385.575 365.803 385.575C365.392 385.575 365.043 385.507 364.754 385.371C364.469 385.235 364.236 385.064 364.053 384.859C363.871 384.65 363.732 384.44 363.636 384.227H363.541V385.45H361.453ZM363.526 381.632C363.526 382.086 363.589 382.482 363.715 382.82C363.841 383.159 364.024 383.422 364.262 383.611C364.501 383.797 364.791 383.889 365.132 383.889C365.477 383.889 365.769 383.795 366.007 383.606C366.246 383.414 366.427 383.149 366.549 382.811C366.675 382.469 366.738 382.076 366.738 381.632C366.738 381.191 366.677 380.804 366.554 380.469C366.432 380.134 366.251 379.872 366.012 379.683C365.774 379.494 365.48 379.4 365.132 379.4C364.788 379.4 364.496 379.491 364.257 379.673C364.022 379.856 363.841 380.114 363.715 380.449C363.589 380.784 363.526 381.178 363.526 381.632ZM373.191 385.595C372.704 385.595 372.27 385.51 371.889 385.341C371.508 385.169 371.206 384.915 370.984 384.58C370.765 384.242 370.656 383.821 370.656 383.318C370.656 382.893 370.734 382.537 370.89 382.249C371.045 381.96 371.258 381.728 371.526 381.553C371.794 381.377 372.099 381.244 372.441 381.155C372.785 381.065 373.147 381.003 373.525 380.966C373.969 380.92 374.327 380.877 374.598 380.837C374.87 380.794 375.067 380.731 375.19 380.648C375.313 380.565 375.374 380.442 375.374 380.28V380.25C375.374 379.935 375.275 379.692 375.076 379.519C374.88 379.347 374.602 379.261 374.24 379.261C373.859 379.261 373.556 379.345 373.331 379.514C373.105 379.68 372.956 379.889 372.883 380.141L370.924 379.982C371.024 379.518 371.219 379.117 371.511 378.779C371.803 378.437 372.179 378.175 372.64 377.993C373.104 377.807 373.641 377.715 374.25 377.715C374.675 377.715 375.081 377.764 375.468 377.864C375.86 377.963 376.206 378.117 376.508 378.326C376.812 378.535 377.053 378.803 377.228 379.132C377.404 379.456 377.492 379.846 377.492 380.3V385.45H375.483V384.391H375.424C375.301 384.63 375.137 384.841 374.932 385.023C374.726 385.202 374.479 385.343 374.191 385.445C373.902 385.545 373.569 385.595 373.191 385.595ZM373.798 384.133C374.11 384.133 374.385 384.072 374.623 383.949C374.862 383.823 375.049 383.654 375.185 383.442C375.321 383.23 375.389 382.99 375.389 382.721V381.911C375.323 381.954 375.231 381.994 375.115 382.03C375.003 382.063 374.875 382.095 374.733 382.124C374.59 382.151 374.448 382.176 374.305 382.199C374.163 382.219 374.033 382.237 373.917 382.254C373.669 382.29 373.452 382.348 373.266 382.428C373.08 382.507 372.936 382.615 372.834 382.751C372.731 382.883 372.679 383.049 372.679 383.248C372.679 383.536 372.784 383.757 372.993 383.909C373.205 384.058 373.473 384.133 373.798 384.133ZM386.189 379.992L384.25 380.111C384.217 379.945 384.145 379.796 384.036 379.664C383.927 379.528 383.782 379.42 383.603 379.34C383.428 379.257 383.217 379.216 382.972 379.216C382.644 379.216 382.367 379.286 382.142 379.425C381.916 379.561 381.804 379.743 381.804 379.972C381.804 380.154 381.877 380.308 382.022 380.434C382.168 380.56 382.419 380.661 382.773 380.737L384.155 381.016C384.898 381.168 385.451 381.414 385.816 381.752C386.18 382.09 386.363 382.534 386.363 383.084C386.363 383.584 386.215 384.024 385.92 384.401C385.629 384.779 385.228 385.074 384.717 385.286C384.21 385.495 383.625 385.6 382.962 385.6C381.951 385.6 381.146 385.389 380.546 384.968C379.949 384.544 379.6 383.967 379.497 383.238L381.58 383.129C381.643 383.437 381.795 383.672 382.037 383.835C382.279 383.994 382.589 384.073 382.967 384.073C383.338 384.073 383.637 384.002 383.862 383.86C384.091 383.714 384.207 383.526 384.21 383.298C384.207 383.106 384.125 382.948 383.966 382.825C383.807 382.699 383.562 382.603 383.231 382.537L381.908 382.274C381.162 382.124 380.607 381.866 380.243 381.498C379.881 381.13 379.701 380.661 379.701 380.091C379.701 379.601 379.833 379.178 380.098 378.823C380.367 378.469 380.743 378.195 381.227 378.003C381.714 377.811 382.284 377.715 382.937 377.715C383.902 377.715 384.661 377.918 385.214 378.326C385.771 378.734 386.096 379.289 386.189 379.992ZM391.876 385.6C391.091 385.6 390.415 385.44 389.848 385.122C389.285 384.801 388.85 384.347 388.545 383.76C388.241 383.17 388.088 382.472 388.088 381.667C388.088 380.882 388.241 380.192 388.545 379.599C388.85 379.006 389.28 378.543 389.833 378.212C390.39 377.88 391.043 377.715 391.792 377.715C392.296 377.715 392.765 377.796 393.199 377.958C393.636 378.117 394.018 378.358 394.342 378.679C394.67 379.001 394.926 379.405 395.108 379.892C395.29 380.376 395.381 380.943 395.381 381.592V382.174H388.933V380.862H393.388C393.388 380.557 393.322 380.287 393.189 380.051C393.056 379.816 392.872 379.632 392.637 379.499C392.405 379.364 392.135 379.296 391.827 379.296C391.505 379.296 391.22 379.37 390.972 379.519C390.726 379.665 390.534 379.862 390.395 380.111C390.256 380.356 390.184 380.63 390.181 380.931V382.179C390.181 382.557 390.251 382.883 390.39 383.159C390.532 383.434 390.733 383.646 390.991 383.795C391.25 383.944 391.557 384.019 391.911 384.019C392.147 384.019 392.362 383.985 392.558 383.919C392.753 383.853 392.92 383.753 393.06 383.621C393.199 383.488 393.305 383.326 393.378 383.134L395.337 383.263C395.237 383.734 395.033 384.145 394.725 384.496C394.42 384.844 394.026 385.116 393.542 385.311C393.061 385.503 392.506 385.6 391.876 385.6ZM400.277 385.575C399.697 385.575 399.172 385.426 398.701 385.127C398.234 384.826 397.863 384.383 397.588 383.8C397.316 383.213 397.18 382.494 397.18 381.642C397.18 380.767 397.321 380.04 397.603 379.46C397.884 378.876 398.259 378.44 398.726 378.152C399.197 377.86 399.712 377.715 400.272 377.715C400.7 377.715 401.056 377.788 401.341 377.933C401.63 378.076 401.862 378.255 402.037 378.47C402.216 378.682 402.352 378.891 402.445 379.097H402.51V375.269H404.623V385.45H402.535V384.227H402.445C402.346 384.44 402.205 384.65 402.022 384.859C401.843 385.064 401.61 385.235 401.321 385.371C401.036 385.507 400.688 385.575 400.277 385.575ZM400.949 383.889C401.29 383.889 401.578 383.797 401.814 383.611C402.052 383.422 402.235 383.159 402.361 382.82C402.49 382.482 402.554 382.086 402.554 381.632C402.554 381.178 402.491 380.784 402.365 380.449C402.24 380.114 402.057 379.856 401.819 379.673C401.58 379.491 401.29 379.4 400.949 379.4C400.601 379.4 400.307 379.494 400.069 379.683C399.83 379.872 399.649 380.134 399.527 380.469C399.404 380.804 399.343 381.191 399.343 381.632C399.343 382.076 399.404 382.469 399.527 382.811C399.653 383.149 399.833 383.414 400.069 383.606C400.307 383.795 400.601 383.889 400.949 383.889ZM352.565 405.314V394.814H354.653V396.097H354.748C354.84 395.891 354.975 395.682 355.15 395.47C355.329 395.255 355.561 395.076 355.846 394.933C356.135 394.788 356.493 394.715 356.92 394.715C357.477 394.715 357.991 394.86 358.461 395.152C358.932 395.44 359.308 395.876 359.59 396.46C359.872 397.04 360.013 397.767 360.013 398.642C360.013 399.494 359.875 400.213 359.6 400.8C359.328 401.383 358.957 401.826 358.486 402.127C358.019 402.426 357.495 402.575 356.915 402.575C356.504 402.575 356.155 402.507 355.866 402.371C355.581 402.235 355.348 402.064 355.165 401.859C354.983 401.65 354.844 401.44 354.748 401.227H354.683V405.314H352.565ZM354.638 398.632C354.638 399.086 354.701 399.482 354.827 399.82C354.953 400.159 355.135 400.422 355.374 400.611C355.613 400.797 355.903 400.889 356.244 400.889C356.589 400.889 356.88 400.795 357.119 400.606C357.358 400.414 357.538 400.149 357.661 399.811C357.787 399.469 357.85 399.076 357.85 398.632C357.85 398.191 357.789 397.804 357.666 397.469C357.543 397.134 357.363 396.872 357.124 396.683C356.885 396.494 356.592 396.4 356.244 396.4C355.899 396.4 355.608 396.491 355.369 396.673C355.134 396.856 354.953 397.114 354.827 397.449C354.701 397.784 354.638 398.178 354.638 398.632ZM364.242 392.269V402.45H362.124V392.269H364.242ZM368.816 402.595C368.329 402.595 367.895 402.51 367.514 402.341C367.133 402.169 366.831 401.915 366.609 401.58C366.39 401.242 366.281 400.821 366.281 400.318C366.281 399.893 366.359 399.537 366.515 399.249C366.67 398.96 366.883 398.728 367.151 398.553C367.419 398.377 367.724 398.244 368.066 398.155C368.41 398.065 368.772 398.003 369.15 397.966C369.594 397.92 369.952 397.877 370.223 397.837C370.495 397.794 370.692 397.731 370.815 397.648C370.938 397.565 370.999 397.442 370.999 397.28V397.25C370.999 396.935 370.9 396.692 370.701 396.519C370.505 396.347 370.227 396.261 369.865 396.261C369.484 396.261 369.181 396.345 368.956 396.514C368.73 396.68 368.581 396.889 368.508 397.141L366.549 396.982C366.649 396.518 366.844 396.117 367.136 395.779C367.428 395.437 367.804 395.175 368.265 394.993C368.729 394.807 369.266 394.715 369.875 394.715C370.3 394.715 370.706 394.764 371.093 394.864C371.485 394.963 371.831 395.117 372.133 395.326C372.437 395.535 372.678 395.803 372.853 396.132C373.029 396.456 373.117 396.846 373.117 397.3V402.45H371.108V401.391H371.049C370.926 401.63 370.762 401.841 370.557 402.023C370.351 402.202 370.104 402.343 369.816 402.445C369.527 402.545 369.194 402.595 368.816 402.595ZM369.423 401.133C369.735 401.133 370.01 401.072 370.248 400.949C370.487 400.823 370.674 400.654 370.81 400.442C370.946 400.23 371.014 399.99 371.014 399.721V398.911C370.948 398.954 370.856 398.994 370.74 399.03C370.628 399.063 370.5 399.095 370.358 399.124C370.215 399.151 370.073 399.176 369.93 399.199C369.788 399.219 369.658 399.237 369.542 399.254C369.294 399.29 369.077 399.348 368.891 399.428C368.705 399.507 368.561 399.615 368.459 399.751C368.356 399.883 368.304 400.049 368.304 400.248C368.304 400.536 368.409 400.757 368.618 400.909C368.83 401.058 369.098 401.133 369.423 401.133ZM379.522 394.814V396.405H374.923V394.814H379.522ZM375.967 392.985H378.085V400.104C378.085 400.299 378.115 400.452 378.174 400.561C378.234 400.667 378.317 400.742 378.423 400.785C378.532 400.828 378.658 400.85 378.801 400.85C378.9 400.85 379 400.841 379.099 400.825C379.199 400.805 379.275 400.79 379.328 400.78L379.661 402.356C379.555 402.389 379.406 402.427 379.214 402.47C379.021 402.517 378.788 402.545 378.513 402.555C378.002 402.575 377.555 402.507 377.17 402.351C376.789 402.195 376.492 401.953 376.28 401.625C376.068 401.297 375.964 400.883 375.967 400.382V392.985ZM385.708 394.814V396.405H380.995V394.814H385.708ZM382.074 402.45V394.262C382.074 393.709 382.181 393.25 382.397 392.885C382.616 392.521 382.914 392.247 383.292 392.065C383.67 391.882 384.099 391.791 384.579 391.791C384.904 391.791 385.201 391.816 385.469 391.866C385.741 391.916 385.943 391.96 386.076 392L385.698 393.591C385.615 393.565 385.512 393.54 385.39 393.516C385.27 393.493 385.148 393.482 385.022 393.482C384.71 393.482 384.493 393.555 384.371 393.7C384.248 393.843 384.187 394.043 384.187 394.302V402.45H382.074ZM390.879 402.6C390.106 402.6 389.439 402.436 388.875 402.107C388.315 401.776 387.882 401.315 387.578 400.725C387.273 400.132 387.12 399.444 387.12 398.662C387.12 397.873 387.273 397.184 387.578 396.594C387.882 396.001 388.315 395.54 388.875 395.212C389.439 394.88 390.106 394.715 390.879 394.715C391.651 394.715 392.317 394.88 392.877 395.212C393.441 395.54 393.875 396.001 394.18 396.594C394.485 397.184 394.637 397.873 394.637 398.662C394.637 399.444 394.485 400.132 394.18 400.725C393.875 401.315 393.441 401.776 392.877 402.107C392.317 402.436 391.651 402.6 390.879 402.6ZM390.889 400.959C391.24 400.959 391.533 400.86 391.769 400.661C392.004 400.458 392.181 400.183 392.301 399.835C392.423 399.487 392.484 399.091 392.484 398.647C392.484 398.203 392.423 397.807 392.301 397.459C392.181 397.111 392.004 396.836 391.769 396.634C391.533 396.431 391.24 396.33 390.889 396.33C390.534 396.33 390.236 396.431 389.994 396.634C389.755 396.836 389.574 397.111 389.452 397.459C389.332 397.807 389.273 398.203 389.273 398.647C389.273 399.091 389.332 399.487 389.452 399.835C389.574 400.183 389.755 400.458 389.994 400.661C390.236 400.86 390.534 400.959 390.889 400.959ZM396.714 402.45V394.814H398.768V396.146H398.847C398.986 395.673 399.22 395.315 399.548 395.073C399.876 394.827 400.254 394.705 400.682 394.705C400.788 394.705 400.902 394.711 401.025 394.725C401.147 394.738 401.255 394.756 401.348 394.779V396.659C401.248 396.629 401.111 396.602 400.935 396.579C400.76 396.556 400.599 396.544 400.453 396.544C400.141 396.544 399.863 396.612 399.618 396.748C399.376 396.881 399.184 397.066 399.041 397.305C398.902 397.543 398.832 397.819 398.832 398.13V402.45H396.714ZM403.143 402.45V394.814H405.161V396.161H405.251C405.41 395.714 405.675 395.361 406.046 395.102C406.417 394.844 406.862 394.715 407.379 394.715C407.902 394.715 408.348 394.846 408.716 395.107C409.084 395.366 409.329 395.717 409.452 396.161H409.531C409.687 395.724 409.969 395.374 410.376 395.112C410.787 394.847 411.273 394.715 411.833 394.715C412.546 394.715 413.124 394.942 413.568 395.396C414.016 395.847 414.239 396.486 414.239 397.315V402.45H412.126V397.732C412.126 397.308 412.014 396.99 411.788 396.778C411.563 396.566 411.281 396.46 410.943 396.46C410.559 396.46 410.259 396.582 410.043 396.828C409.828 397.07 409.72 397.389 409.72 397.787V402.45H407.667V397.688C407.667 397.313 407.559 397.015 407.344 396.793C407.132 396.571 406.852 396.46 406.504 396.46C406.268 396.46 406.056 396.519 405.867 396.639C405.682 396.755 405.534 396.919 405.425 397.131C405.315 397.34 405.261 397.585 405.261 397.867V402.45H403.143Z" fill="white"/>
<circle cx="383.393" cy="335.28" r="7.59602" fill="#030303"/>
<path d="M299.105 490.71V489.433L304.186 482.303H299.095V480.529H306.891V481.806L301.805 488.936H306.901V490.71H299.105ZM312.663 490.86C311.891 490.86 311.223 490.696 310.66 490.367C310.099 490.036 309.667 489.575 309.362 488.985C309.057 488.392 308.905 487.704 308.905 486.922C308.905 486.133 309.057 485.444 309.362 484.854C309.667 484.261 310.099 483.8 310.66 483.472C311.223 483.14 311.891 482.975 312.663 482.975C313.435 482.975 314.102 483.14 314.662 483.472C315.225 483.8 315.659 484.261 315.964 484.854C316.269 485.444 316.422 486.133 316.422 486.922C316.422 487.704 316.269 488.392 315.964 488.985C315.659 489.575 315.225 490.036 314.662 490.367C314.102 490.696 313.435 490.86 312.663 490.86ZM312.673 489.219C313.024 489.219 313.318 489.12 313.553 488.921C313.788 488.718 313.966 488.443 314.085 488.095C314.208 487.747 314.269 487.351 314.269 486.907C314.269 486.463 314.208 486.067 314.085 485.719C313.966 485.371 313.788 485.096 313.553 484.894C313.318 484.692 313.024 484.59 312.673 484.59C312.318 484.59 312.02 484.692 311.778 484.894C311.54 485.096 311.359 485.371 311.236 485.719C311.117 486.067 311.057 486.463 311.057 486.907C311.057 487.351 311.117 487.747 311.236 488.095C311.359 488.443 311.54 488.718 311.778 488.921C312.02 489.12 312.318 489.219 312.673 489.219ZM321.949 490.86C321.177 490.86 320.509 490.696 319.946 490.367C319.385 490.036 318.953 489.575 318.648 488.985C318.343 488.392 318.191 487.704 318.191 486.922C318.191 486.133 318.343 485.444 318.648 484.854C318.953 484.261 319.385 483.8 319.946 483.472C320.509 483.14 321.177 482.975 321.949 482.975C322.721 482.975 323.388 483.14 323.948 483.472C324.511 483.8 324.945 484.261 325.25 484.854C325.555 485.444 325.708 486.133 325.708 486.922C325.708 487.704 325.555 488.392 325.25 488.985C324.945 489.575 324.511 490.036 323.948 490.367C323.388 490.696 322.721 490.86 321.949 490.86ZM321.959 489.219C322.31 489.219 322.604 489.12 322.839 488.921C323.074 488.718 323.252 488.443 323.371 488.095C323.494 487.747 323.555 487.351 323.555 486.907C323.555 486.463 323.494 486.067 323.371 485.719C323.252 485.371 323.074 485.096 322.839 484.894C322.604 484.692 322.31 484.59 321.959 484.59C321.604 484.59 321.306 484.692 321.064 484.894C320.825 485.096 320.645 485.371 320.522 485.719C320.403 486.067 320.343 486.463 320.343 486.907C320.343 487.351 320.403 487.747 320.522 488.095C320.645 488.443 320.825 488.718 321.064 488.921C321.306 489.12 321.604 489.219 321.959 489.219ZM327.785 490.71V483.074H329.803V484.421H329.893C330.052 483.974 330.317 483.621 330.688 483.362C331.059 483.104 331.503 482.975 332.021 482.975C332.544 482.975 332.99 483.106 333.358 483.367C333.726 483.626 333.971 483.977 334.094 484.421H334.173C334.329 483.984 334.611 483.634 335.018 483.372C335.429 483.107 335.915 482.975 336.475 482.975C337.188 482.975 337.766 483.202 338.21 483.656C338.658 484.107 338.881 484.746 338.881 485.575V490.71H336.768V485.992C336.768 485.568 336.656 485.25 336.43 485.038C336.205 484.826 335.923 484.72 335.585 484.72C335.201 484.72 334.901 484.842 334.685 485.088C334.47 485.33 334.362 485.649 334.362 486.047V490.71H332.309V485.948C332.309 485.573 332.201 485.275 331.986 485.053C331.774 484.831 331.494 484.72 331.146 484.72C330.91 484.72 330.698 484.779 330.509 484.899C330.324 485.015 330.176 485.179 330.067 485.391C329.957 485.6 329.903 485.845 329.903 486.127V490.71H327.785ZM272.539 510.574V500.074H274.627V501.357H274.722C274.815 501.151 274.949 500.942 275.125 500.73C275.304 500.515 275.536 500.336 275.821 500.193C276.109 500.048 276.467 499.975 276.895 499.975C277.451 499.975 277.965 500.12 278.436 500.412C278.906 500.701 279.283 501.136 279.564 501.72C279.846 502.3 279.987 503.027 279.987 503.902C279.987 504.754 279.849 505.473 279.574 506.06C279.302 506.643 278.931 507.086 278.461 507.387C277.993 507.686 277.47 507.835 276.89 507.835C276.479 507.835 276.129 507.767 275.841 507.631C275.556 507.495 275.322 507.324 275.14 507.119C274.957 506.91 274.818 506.7 274.722 506.487H274.657V510.574H272.539ZM274.613 503.892C274.613 504.346 274.676 504.742 274.801 505.08C274.927 505.419 275.11 505.682 275.348 505.871C275.587 506.057 275.877 506.149 276.218 506.149C276.563 506.149 276.855 506.055 277.093 505.866C277.332 505.674 277.513 505.409 277.635 505.071C277.761 504.729 277.824 504.336 277.824 503.892C277.824 503.451 277.763 503.064 277.64 502.729C277.518 502.394 277.337 502.132 277.098 501.943C276.86 501.754 276.566 501.66 276.218 501.66C275.874 501.66 275.582 501.751 275.343 501.933C275.108 502.116 274.927 502.374 274.801 502.709C274.676 503.044 274.613 503.438 274.613 503.892ZM282.099 507.71V500.074H284.152V501.406H284.232C284.371 500.933 284.604 500.575 284.933 500.333C285.261 500.087 285.639 499.965 286.066 499.965C286.172 499.965 286.287 499.971 286.409 499.985C286.532 499.998 286.64 500.016 286.732 500.039V501.919C286.633 501.889 286.495 501.862 286.32 501.839C286.144 501.816 285.983 501.804 285.837 501.804C285.526 501.804 285.247 501.872 285.002 502.008C284.76 502.141 284.568 502.326 284.425 502.565C284.286 502.803 284.217 503.079 284.217 503.39V507.71H282.099ZM291.652 507.86C290.866 507.86 290.19 507.701 289.624 507.382C289.06 507.061 288.626 506.607 288.321 506.02C288.016 505.43 287.864 504.732 287.864 503.927C287.864 503.142 288.016 502.452 288.321 501.859C288.626 501.266 289.055 500.803 289.609 500.472C290.165 500.14 290.818 499.975 291.567 499.975C292.071 499.975 292.54 500.056 292.974 500.218C293.412 500.377 293.793 500.618 294.118 500.939C294.446 501.261 294.701 501.665 294.883 502.152C295.066 502.636 295.157 503.203 295.157 503.852V504.434H288.709V503.122H293.163C293.163 502.817 293.097 502.547 292.964 502.311C292.832 502.076 292.648 501.892 292.413 501.759C292.181 501.624 291.91 501.556 291.602 501.556C291.281 501.556 290.996 501.63 290.747 501.779C290.502 501.925 290.31 502.122 290.17 502.371C290.031 502.616 289.96 502.89 289.957 503.191V504.439C289.957 504.817 290.026 505.143 290.165 505.419C290.308 505.694 290.508 505.906 290.767 506.055C291.026 506.204 291.332 506.279 291.687 506.279C291.922 506.279 292.138 506.245 292.333 506.179C292.529 506.113 292.696 506.013 292.835 505.881C292.974 505.748 293.08 505.586 293.153 505.394L295.112 505.523C295.013 505.994 294.809 506.405 294.501 506.756C294.196 507.104 293.801 507.376 293.317 507.571C292.837 507.763 292.282 507.86 291.652 507.86ZM303.593 502.252L301.654 502.371C301.621 502.205 301.549 502.056 301.44 501.924C301.331 501.788 301.186 501.68 301.007 501.6C300.832 501.518 300.621 501.476 300.376 501.476C300.048 501.476 299.771 501.546 299.546 501.685C299.32 501.821 299.208 502.003 299.208 502.232C299.208 502.414 299.281 502.568 299.427 502.694C299.572 502.82 299.823 502.921 300.177 502.997L301.559 503.276C302.302 503.428 302.855 503.674 303.22 504.012C303.584 504.35 303.767 504.794 303.767 505.344C303.767 505.844 303.619 506.284 303.324 506.661C303.033 507.039 302.632 507.334 302.121 507.546C301.614 507.755 301.029 507.86 300.366 507.86C299.355 507.86 298.55 507.649 297.95 507.228C297.353 506.804 297.004 506.227 296.901 505.498L298.984 505.389C299.047 505.697 299.199 505.932 299.441 506.095C299.683 506.254 299.993 506.333 300.371 506.333C300.742 506.333 301.041 506.262 301.266 506.12C301.495 505.974 301.611 505.786 301.614 505.558C301.611 505.366 301.53 505.208 301.37 505.085C301.211 504.96 300.966 504.863 300.635 504.797L299.312 504.534C298.566 504.384 298.011 504.126 297.647 503.758C297.285 503.39 297.105 502.921 297.105 502.351C297.105 501.861 297.237 501.438 297.503 501.083C297.771 500.729 298.147 500.455 298.631 500.263C299.118 500.071 299.688 499.975 300.341 499.975C301.306 499.975 302.065 500.178 302.618 500.586C303.175 500.994 303.5 501.549 303.593 502.252ZM309.28 507.86C308.495 507.86 307.819 507.701 307.252 507.382C306.689 507.061 306.254 506.607 305.949 506.02C305.645 505.43 305.492 504.732 305.492 503.927C305.492 503.142 305.645 502.452 305.949 501.859C306.254 501.266 306.684 500.803 307.237 500.472C307.794 500.14 308.447 499.975 309.196 499.975C309.7 499.975 310.169 500.056 310.603 500.218C311.04 500.377 311.422 500.618 311.746 500.939C312.074 501.261 312.33 501.665 312.512 502.152C312.694 502.636 312.785 503.203 312.785 503.852V504.434H306.337V503.122H310.792C310.792 502.817 310.726 502.547 310.593 502.311C310.46 502.076 310.276 501.892 310.041 501.759C309.809 501.624 309.539 501.556 309.231 501.556C308.909 501.556 308.624 501.63 308.376 501.779C308.13 501.925 307.938 502.122 307.799 502.371C307.66 502.616 307.588 502.89 307.585 503.191V504.439C307.585 504.817 307.655 505.143 307.794 505.419C307.936 505.694 308.137 505.906 308.396 506.055C308.654 506.204 308.961 506.279 309.315 506.279C309.551 506.279 309.766 506.245 309.962 506.179C310.157 506.113 310.324 506.013 310.464 505.881C310.603 505.748 310.709 505.586 310.782 505.394L312.741 505.523C312.641 505.994 312.437 506.405 312.129 506.756C311.824 507.104 311.43 507.376 310.946 507.571C310.465 507.763 309.91 507.86 309.28 507.86ZM316.985 503.296V507.71H314.868V500.074H316.886V501.421H316.975C317.145 500.977 317.428 500.626 317.826 500.367C318.223 500.106 318.706 499.975 319.272 499.975C319.803 499.975 320.265 500.091 320.659 500.323C321.054 500.555 321.36 500.886 321.579 501.317C321.798 501.745 321.907 502.255 321.907 502.848V507.71H319.789V503.226C319.793 502.759 319.673 502.394 319.431 502.132C319.19 501.867 318.856 501.735 318.432 501.735C318.147 501.735 317.895 501.796 317.676 501.919C317.461 502.041 317.292 502.22 317.169 502.455C317.05 502.687 316.989 502.968 316.985 503.296ZM328.338 500.074V501.665H323.74V500.074H328.338ZM324.784 498.245H326.902V505.364C326.902 505.559 326.931 505.712 326.991 505.821C327.051 505.927 327.134 506.002 327.24 506.045C327.349 506.088 327.475 506.11 327.617 506.11C327.717 506.11 327.816 506.101 327.916 506.085C328.015 506.065 328.091 506.05 328.144 506.04L328.478 507.616C328.371 507.649 328.222 507.687 328.03 507.73C327.838 507.777 327.604 507.805 327.329 507.815C326.819 507.835 326.371 507.767 325.987 507.611C325.606 507.455 325.309 507.213 325.097 506.885C324.885 506.557 324.78 506.143 324.784 505.642V498.245ZM332.595 507.855C332.108 507.855 331.674 507.77 331.293 507.601C330.912 507.429 330.61 507.175 330.388 506.84C330.169 506.502 330.06 506.081 330.06 505.578C330.06 505.153 330.138 504.797 330.294 504.509C330.449 504.22 330.662 503.988 330.93 503.813C331.198 503.637 331.503 503.504 331.845 503.415C332.189 503.326 332.551 503.263 332.929 503.226C333.373 503.18 333.731 503.137 334.002 503.097C334.274 503.054 334.471 502.991 334.594 502.908C334.717 502.825 334.778 502.702 334.778 502.54V502.51C334.778 502.195 334.679 501.952 334.48 501.779C334.284 501.607 334.006 501.521 333.644 501.521C333.263 501.521 332.96 501.605 332.735 501.774C332.509 501.94 332.36 502.149 332.287 502.401L330.328 502.242C330.428 501.778 330.623 501.377 330.915 501.039C331.207 500.697 331.583 500.435 332.044 500.253C332.508 500.067 333.045 499.975 333.654 499.975C334.079 499.975 334.485 500.024 334.872 500.124C335.264 500.223 335.61 500.377 335.912 500.586C336.216 500.795 336.457 501.063 336.632 501.392C336.808 501.716 336.896 502.106 336.896 502.56V507.71H334.887V506.652H334.828C334.705 506.89 334.541 507.101 334.336 507.283C334.13 507.462 333.883 507.603 333.595 507.705C333.306 507.805 332.973 507.855 332.595 507.855ZM333.202 506.393C333.514 506.393 333.789 506.332 334.027 506.209C334.266 506.083 334.453 505.914 334.589 505.702C334.725 505.49 334.793 505.25 334.793 504.981V504.171C334.727 504.214 334.635 504.254 334.519 504.29C334.407 504.323 334.279 504.355 334.137 504.384C333.994 504.411 333.852 504.436 333.709 504.459C333.567 504.479 333.437 504.497 333.321 504.514C333.073 504.55 332.856 504.608 332.67 504.688C332.484 504.767 332.34 504.875 332.238 505.011C332.135 505.143 332.083 505.309 332.083 505.508C332.083 505.796 332.188 506.017 332.397 506.169C332.609 506.318 332.877 506.393 333.202 506.393ZM343.301 500.074V501.665H338.702V500.074H343.301ZM339.746 498.245H341.864V505.364C341.864 505.559 341.894 505.712 341.954 505.821C342.013 505.927 342.096 506.002 342.202 506.045C342.311 506.088 342.437 506.11 342.58 506.11C342.679 506.11 342.779 506.101 342.878 506.085C342.978 506.065 343.054 506.05 343.107 506.04L343.44 507.616C343.334 507.649 343.185 507.687 342.993 507.73C342.8 507.777 342.567 507.805 342.292 507.815C341.781 507.835 341.334 507.767 340.949 507.611C340.568 507.455 340.271 507.213 340.059 506.885C339.847 506.557 339.743 506.143 339.746 505.642V498.245ZM345.38 507.71V500.074H347.498V507.71H345.38ZM346.444 499.09C346.129 499.09 345.859 498.985 345.634 498.776C345.412 498.564 345.301 498.311 345.301 498.016C345.301 497.724 345.412 497.474 345.634 497.265C345.859 497.053 346.129 496.947 346.444 496.947C346.759 496.947 347.028 497.053 347.25 497.265C347.475 497.474 347.588 497.724 347.588 498.016C347.588 498.311 347.475 498.564 347.25 498.776C347.028 498.985 346.759 499.09 346.444 499.09ZM353.345 507.86C352.573 507.86 351.905 507.696 351.342 507.367C350.781 507.036 350.349 506.575 350.044 505.985C349.739 505.392 349.587 504.704 349.587 503.922C349.587 503.133 349.739 502.444 350.044 501.854C350.349 501.261 350.781 500.8 351.342 500.472C351.905 500.14 352.573 499.975 353.345 499.975C354.117 499.975 354.784 500.14 355.344 500.472C355.907 500.8 356.341 501.261 356.646 501.854C356.951 502.444 357.104 503.133 357.104 503.922C357.104 504.704 356.951 505.392 356.646 505.985C356.341 506.575 355.907 507.036 355.344 507.367C354.784 507.696 354.117 507.86 353.345 507.86ZM353.355 506.219C353.706 506.219 354 506.12 354.235 505.921C354.47 505.718 354.648 505.443 354.767 505.095C354.89 504.747 354.951 504.351 354.951 503.907C354.951 503.463 354.89 503.067 354.767 502.719C354.648 502.371 354.47 502.096 354.235 501.894C354 501.692 353.706 501.59 353.355 501.59C353 501.59 352.702 501.692 352.46 501.894C352.222 502.096 352.041 502.371 351.918 502.719C351.799 503.067 351.739 503.463 351.739 503.907C351.739 504.351 351.799 504.747 351.918 505.095C352.041 505.443 352.222 505.718 352.46 505.921C352.702 506.12 353 506.219 353.355 506.219ZM361.299 503.296V507.71H359.181V500.074H361.199V501.421H361.289C361.458 500.977 361.741 500.626 362.139 500.367C362.537 500.106 363.019 499.975 363.586 499.975C364.116 499.975 364.578 500.091 364.973 500.323C365.367 500.555 365.674 500.886 365.892 501.317C366.111 501.745 366.221 502.255 366.221 502.848V507.71H364.103V503.226C364.106 502.759 363.987 502.394 363.745 502.132C363.503 501.867 363.17 501.735 362.745 501.735C362.46 501.735 362.209 501.796 361.99 501.919C361.774 502.041 361.605 502.22 361.483 502.455C361.363 502.687 361.302 502.968 361.299 503.296Z" fill="white"/>
<circle cx="317.561" cy="456.816" r="7.59602" fill="#030303"/>
<path d="M631.748 292.471C631.709 292.07 631.538 291.758 631.236 291.536C630.935 291.314 630.525 291.203 630.008 291.203C629.657 291.203 629.36 291.253 629.118 291.352C628.876 291.449 628.691 291.583 628.562 291.755C628.436 291.927 628.373 292.123 628.373 292.342C628.366 292.524 628.404 292.683 628.487 292.819C628.573 292.955 628.691 293.073 628.84 293.172C628.989 293.268 629.162 293.353 629.357 293.426C629.553 293.495 629.761 293.555 629.983 293.605L630.898 293.823C631.342 293.923 631.75 294.055 632.121 294.221C632.492 294.387 632.814 294.591 633.086 294.833C633.358 295.075 633.568 295.36 633.717 295.688C633.87 296.016 633.948 296.392 633.951 296.816C633.948 297.439 633.788 297.98 633.474 298.437C633.162 298.891 632.711 299.244 632.121 299.496C631.535 299.744 630.827 299.869 629.998 299.869C629.176 299.869 628.461 299.743 627.851 299.491C627.244 299.239 626.77 298.866 626.429 298.372C626.091 297.875 625.913 297.26 625.897 296.528H627.98C628.003 296.869 628.101 297.154 628.273 297.383C628.449 297.608 628.683 297.779 628.974 297.895C629.269 298.008 629.602 298.064 629.974 298.064C630.338 298.064 630.655 298.011 630.923 297.905C631.195 297.799 631.405 297.651 631.555 297.463C631.704 297.274 631.778 297.057 631.778 296.811C631.778 296.583 631.71 296.39 631.574 296.235C631.442 296.079 631.246 295.946 630.988 295.837C630.733 295.727 630.419 295.628 630.048 295.539L628.939 295.26C628.081 295.051 627.403 294.725 626.906 294.281C626.409 293.837 626.162 293.238 626.165 292.486C626.162 291.869 626.326 291.331 626.657 290.87C626.992 290.41 627.451 290.05 628.035 289.791C628.618 289.533 629.281 289.404 630.023 289.404C630.779 289.404 631.439 289.533 632.002 289.791C632.569 290.05 633.01 290.41 633.324 290.87C633.639 291.331 633.802 291.865 633.812 292.471H631.748ZM638.237 299.869C637.749 299.869 637.315 299.784 636.934 299.615C636.553 299.443 636.251 299.189 636.029 298.855C635.81 298.517 635.701 298.096 635.701 297.592C635.701 297.168 635.779 296.811 635.935 296.523C636.091 296.235 636.303 296.003 636.571 295.827C636.84 295.651 637.144 295.519 637.486 295.429C637.831 295.34 638.192 295.277 638.57 295.24C639.014 295.194 639.372 295.151 639.644 295.111C639.915 295.068 640.113 295.005 640.235 294.922C640.358 294.839 640.419 294.717 640.419 294.554V294.524C640.419 294.209 640.32 293.966 640.121 293.794C639.925 293.621 639.647 293.535 639.286 293.535C638.904 293.535 638.601 293.619 638.376 293.789C638.15 293.954 638.001 294.163 637.928 294.415L635.97 294.256C636.069 293.792 636.265 293.391 636.556 293.053C636.848 292.711 637.224 292.45 637.685 292.267C638.149 292.082 638.686 291.989 639.296 291.989C639.72 291.989 640.126 292.039 640.514 292.138C640.905 292.237 641.251 292.392 641.553 292.6C641.858 292.809 642.098 293.078 642.274 293.406C642.449 293.731 642.537 294.12 642.537 294.574V299.725H640.528V298.666H640.469C640.346 298.904 640.182 299.115 639.977 299.297C639.771 299.476 639.524 299.617 639.236 299.72C638.948 299.819 638.614 299.869 638.237 299.869ZM638.843 298.407C639.155 298.407 639.43 298.346 639.668 298.223C639.907 298.097 640.094 297.928 640.23 297.716C640.366 297.504 640.434 297.264 640.434 296.995V296.185C640.368 296.228 640.277 296.268 640.161 296.304C640.048 296.337 639.92 296.369 639.778 296.399C639.635 296.425 639.493 296.45 639.35 296.473C639.208 296.493 639.078 296.511 638.962 296.528C638.714 296.564 638.497 296.622 638.311 296.702C638.126 296.781 637.981 296.889 637.879 297.025C637.776 297.158 637.725 297.323 637.725 297.522C637.725 297.811 637.829 298.031 638.038 298.183C638.25 298.333 638.518 298.407 638.843 298.407ZM646.998 295.31V299.725H644.88V289.543H646.938V293.436H647.028C647.2 292.985 647.479 292.632 647.863 292.377C648.248 292.118 648.73 291.989 649.31 291.989C649.84 291.989 650.302 292.105 650.697 292.337C651.095 292.566 651.403 292.895 651.622 293.326C651.844 293.754 651.953 294.266 651.95 294.862V299.725H649.832V295.24C649.835 294.77 649.716 294.403 649.474 294.142C649.235 293.88 648.9 293.749 648.47 293.749C648.181 293.749 647.926 293.81 647.704 293.933C647.485 294.055 647.313 294.234 647.187 294.47C647.064 294.702 647.001 294.982 646.998 295.31ZM656.494 299.869C656.007 299.869 655.573 299.784 655.191 299.615C654.81 299.443 654.509 299.189 654.287 298.855C654.068 298.517 653.958 298.096 653.958 297.592C653.958 297.168 654.036 296.811 654.192 296.523C654.348 296.235 654.56 296.003 654.829 295.827C655.097 295.651 655.402 295.519 655.743 295.429C656.088 295.34 656.449 295.277 656.827 295.24C657.271 295.194 657.629 295.151 657.901 295.111C658.173 295.068 658.37 295.005 658.493 294.922C658.615 294.839 658.677 294.717 658.677 294.554V294.524C658.677 294.209 658.577 293.966 658.378 293.794C658.183 293.621 657.904 293.535 657.543 293.535C657.162 293.535 656.859 293.619 656.633 293.789C656.408 293.954 656.259 294.163 656.186 294.415L654.227 294.256C654.326 293.792 654.522 293.391 654.814 293.053C655.105 292.711 655.481 292.45 655.942 292.267C656.406 292.082 656.943 291.989 657.553 291.989C657.977 291.989 658.383 292.039 658.771 292.138C659.162 292.237 659.508 292.392 659.81 292.6C660.115 292.809 660.355 293.078 660.531 293.406C660.707 293.731 660.794 294.12 660.794 294.574V299.725H658.786V298.666H658.726C658.604 298.904 658.44 299.115 658.234 299.297C658.029 299.476 657.782 299.617 657.493 299.72C657.205 299.819 656.872 299.869 656.494 299.869ZM657.101 298.407C657.412 298.407 657.687 298.346 657.926 298.223C658.164 298.097 658.352 297.928 658.488 297.716C658.623 297.504 658.691 297.264 658.691 296.995V296.185C658.625 296.228 658.534 296.268 658.418 296.304C658.305 296.337 658.178 296.369 658.035 296.399C657.893 296.425 657.75 296.45 657.608 296.473C657.465 296.493 657.336 296.511 657.22 296.528C656.971 296.564 656.754 296.622 656.569 296.702C656.383 296.781 656.239 296.889 656.136 297.025C656.033 297.158 655.982 297.323 655.982 297.522C655.982 297.811 656.086 298.031 656.295 298.183C656.507 298.333 656.776 298.407 657.101 298.407ZM665.315 299.869C664.828 299.869 664.394 299.784 664.013 299.615C663.631 299.443 663.33 299.189 663.108 298.855C662.889 298.517 662.78 298.096 662.78 297.592C662.78 297.168 662.857 296.811 663.013 296.523C663.169 296.235 663.381 296.003 663.65 295.827C663.918 295.651 664.223 295.519 664.564 295.429C664.909 295.34 665.27 295.277 665.648 295.24C666.092 295.194 666.45 295.151 666.722 295.111C666.994 295.068 667.191 295.005 667.314 294.922C667.436 294.839 667.498 294.717 667.498 294.554V294.524C667.498 294.209 667.398 293.966 667.199 293.794C667.004 293.621 666.725 293.535 666.364 293.535C665.983 293.535 665.68 293.619 665.454 293.789C665.229 293.954 665.08 294.163 665.007 294.415L663.048 294.256C663.147 293.792 663.343 293.391 663.635 293.053C663.926 292.711 664.303 292.45 664.763 292.267C665.227 292.082 665.764 291.989 666.374 291.989C666.798 291.989 667.204 292.039 667.592 292.138C667.983 292.237 668.33 292.392 668.631 292.6C668.936 292.809 669.176 293.078 669.352 293.406C669.528 293.731 669.616 294.12 669.616 294.574V299.725H667.607V298.666H667.547C667.425 298.904 667.261 299.115 667.055 299.297C666.85 299.476 666.603 299.617 666.314 299.72C666.026 299.819 665.693 299.869 665.315 299.869ZM665.922 298.407C666.233 298.407 666.508 298.346 666.747 298.223C666.986 298.097 667.173 297.928 667.309 297.716C667.445 297.504 667.513 297.264 667.513 296.995V296.185C667.446 296.228 667.355 296.268 667.239 296.304C667.126 296.337 666.999 296.369 666.856 296.399C666.714 296.425 666.571 296.45 666.429 296.473C666.286 296.493 666.157 296.511 666.041 296.528C665.792 296.564 665.575 296.622 665.39 296.702C665.204 296.781 665.06 296.889 664.957 297.025C664.854 297.158 664.803 297.323 664.803 297.522C664.803 297.811 664.907 298.031 665.116 298.183C665.328 298.333 665.597 298.407 665.922 298.407ZM672.993 302.588C672.724 302.588 672.472 302.567 672.237 302.524C672.005 302.484 671.813 302.432 671.66 302.369L672.138 300.789C672.386 300.865 672.61 300.906 672.809 300.913C673.011 300.919 673.185 300.873 673.331 300.774C673.48 300.674 673.601 300.505 673.694 300.267L673.818 299.943L671.079 292.088H673.306L674.887 297.696H674.966L676.562 292.088H678.805L675.836 300.55C675.694 300.961 675.5 301.319 675.255 301.624C675.013 301.932 674.706 302.169 674.335 302.335C673.964 302.504 673.516 302.588 672.993 302.588ZM682.561 299.869C682.074 299.869 681.639 299.784 681.258 299.615C680.877 299.443 680.575 299.189 680.353 298.855C680.135 298.517 680.025 298.096 680.025 297.592C680.025 297.168 680.103 296.811 680.259 296.523C680.415 296.235 680.627 296.003 680.895 295.827C681.164 295.651 681.469 295.519 681.81 295.429C682.155 295.34 682.516 295.277 682.894 295.24C683.338 295.194 683.696 295.151 683.968 295.111C684.24 295.068 684.437 295.005 684.559 294.922C684.682 294.839 684.743 294.717 684.743 294.554V294.524C684.743 294.209 684.644 293.966 684.445 293.794C684.249 293.621 683.971 293.535 683.61 293.535C683.229 293.535 682.925 293.619 682.7 293.789C682.475 293.954 682.325 294.163 682.253 294.415L680.294 294.256C680.393 293.792 680.589 293.391 680.88 293.053C681.172 292.711 681.548 292.45 682.009 292.267C682.473 292.082 683.01 291.989 683.62 291.989C684.044 291.989 684.45 292.039 684.838 292.138C685.229 292.237 685.575 292.392 685.877 292.6C686.182 292.809 686.422 293.078 686.598 293.406C686.773 293.731 686.861 294.12 686.861 294.574V299.725H684.853V298.666H684.793C684.67 298.904 684.506 299.115 684.301 299.297C684.095 299.476 683.848 299.617 683.56 299.72C683.272 299.819 682.939 299.869 682.561 299.869ZM683.167 298.407C683.479 298.407 683.754 298.346 683.993 298.223C684.231 298.097 684.419 297.928 684.554 297.716C684.69 297.504 684.758 297.264 684.758 296.995V296.185C684.692 296.228 684.601 296.268 684.485 296.304C684.372 296.337 684.245 296.369 684.102 296.399C683.959 296.425 683.817 296.45 683.674 296.473C683.532 296.493 683.403 296.511 683.287 296.528C683.038 296.564 682.821 296.622 682.635 296.702C682.45 296.781 682.306 296.889 682.203 297.025C682.1 297.158 682.049 297.323 682.049 297.522C682.049 297.811 682.153 298.031 682.362 298.183C682.574 298.333 682.843 298.407 683.167 298.407ZM640.457 316.874C639.671 316.874 638.995 316.715 638.428 316.396C637.865 316.075 637.43 315.621 637.126 315.034C636.821 314.444 636.668 313.747 636.668 312.941C636.668 312.156 636.821 311.466 637.126 310.873C637.43 310.28 637.86 309.817 638.413 309.486C638.97 309.155 639.623 308.989 640.372 308.989C640.876 308.989 641.345 309.07 641.779 309.232C642.216 309.392 642.598 309.632 642.922 309.953C643.251 310.275 643.506 310.679 643.688 311.166C643.87 311.65 643.961 312.217 643.961 312.867V313.448H637.513V312.136H641.968C641.968 311.831 641.902 311.561 641.769 311.325C641.636 311.09 641.452 310.906 641.217 310.774C640.985 310.638 640.715 310.57 640.407 310.57C640.085 310.57 639.8 310.644 639.552 310.794C639.306 310.939 639.114 311.137 638.975 311.385C638.836 311.63 638.765 311.904 638.761 312.205V313.453C638.761 313.831 638.831 314.158 638.97 314.433C639.113 314.708 639.313 314.92 639.572 315.069C639.83 315.218 640.137 315.293 640.491 315.293C640.727 315.293 640.942 315.26 641.138 315.193C641.333 315.127 641.501 315.028 641.64 314.895C641.779 314.762 641.885 314.6 641.958 314.408L643.917 314.537C643.817 315.008 643.613 315.419 643.305 315.77C643 316.118 642.606 316.39 642.122 316.585C641.641 316.778 641.086 316.874 640.457 316.874ZM652.958 309.088L650.288 316.725H647.902L645.232 309.088H647.469L649.055 314.552H649.135L650.716 309.088H652.958ZM657.976 316.874C657.19 316.874 656.514 316.715 655.947 316.396C655.384 316.075 654.95 315.621 654.645 315.034C654.34 314.444 654.187 313.747 654.187 312.941C654.187 312.156 654.34 311.466 654.645 310.873C654.95 310.28 655.379 309.817 655.932 309.486C656.489 309.155 657.142 308.989 657.891 308.989C658.395 308.989 658.864 309.07 659.298 309.232C659.736 309.392 660.117 309.632 660.442 309.953C660.77 310.275 661.025 310.679 661.207 311.166C661.389 311.65 661.481 312.217 661.481 312.867V313.448H655.032V312.136H659.487C659.487 311.831 659.421 311.561 659.288 311.325C659.156 311.09 658.972 310.906 658.736 310.774C658.504 310.638 658.234 310.57 657.926 310.57C657.604 310.57 657.319 310.644 657.071 310.794C656.826 310.939 656.633 311.137 656.494 311.385C656.355 311.63 656.284 311.904 656.28 312.205V313.453C656.28 313.831 656.35 314.158 656.489 314.433C656.632 314.708 656.832 314.92 657.091 315.069C657.349 315.218 657.656 315.293 658.01 315.293C658.246 315.293 658.461 315.26 658.657 315.193C658.852 315.127 659.02 315.028 659.159 314.895C659.298 314.762 659.404 314.6 659.477 314.408L661.436 314.537C661.336 315.008 661.133 315.419 660.824 315.77C660.519 316.118 660.125 316.39 659.641 316.585C659.161 316.778 658.605 316.874 657.976 316.874ZM665.681 312.31V316.725H663.563V309.088H665.581V310.436H665.671C665.84 309.991 666.123 309.64 666.521 309.382C666.919 309.12 667.401 308.989 667.968 308.989C668.498 308.989 668.96 309.105 669.355 309.337C669.749 309.569 670.056 309.9 670.274 310.331C670.493 310.759 670.603 311.269 670.603 311.862V316.725H668.485V312.24C668.488 311.773 668.369 311.408 668.127 311.146C667.885 310.881 667.552 310.749 667.127 310.749C666.842 310.749 666.59 310.81 666.372 310.933C666.156 311.055 665.987 311.234 665.865 311.47C665.745 311.702 665.684 311.982 665.681 312.31ZM677.034 309.088V310.679H672.435V309.088H677.034ZM673.479 307.259H675.597V314.378C675.597 314.574 675.627 314.726 675.686 314.835C675.746 314.941 675.829 315.016 675.935 315.059C676.044 315.102 676.17 315.124 676.313 315.124C676.412 315.124 676.511 315.115 676.611 315.099C676.71 315.079 676.787 315.064 676.84 315.054L677.173 316.63C677.067 316.663 676.917 316.701 676.725 316.744C676.533 316.791 676.299 316.819 676.024 316.829C675.514 316.849 675.066 316.781 674.682 316.625C674.301 316.469 674.004 316.227 673.792 315.899C673.58 315.571 673.475 315.157 673.479 314.656V307.259Z" fill="white"/>
<circle cx="656.849" cy="266.554" r="7.59602" fill="#030303"/>
<path d="M594.399 424.429V422.654H602.761V424.429H599.644V432.836H597.516V424.429H594.399ZM607.142 432.985C606.369 432.985 605.701 432.821 605.138 432.493C604.578 432.161 604.145 431.701 603.84 431.111C603.536 430.517 603.383 429.83 603.383 429.047C603.383 428.259 603.536 427.569 603.84 426.979C604.145 426.386 604.578 425.925 605.138 425.597C605.701 425.266 606.369 425.1 607.142 425.1C607.914 425.1 608.58 425.266 609.14 425.597C609.704 425.925 610.138 426.386 610.443 426.979C610.748 427.569 610.9 428.259 610.9 429.047C610.9 429.83 610.748 430.517 610.443 431.111C610.138 431.701 609.704 432.161 609.14 432.493C608.58 432.821 607.914 432.985 607.142 432.985ZM607.152 431.344C607.503 431.344 607.796 431.245 608.032 431.046C608.267 430.844 608.444 430.569 608.563 430.221C608.686 429.873 608.747 429.477 608.747 429.032C608.747 428.588 608.686 428.192 608.563 427.844C608.444 427.496 608.267 427.221 608.032 427.019C607.796 426.817 607.503 426.716 607.152 426.716C606.797 426.716 606.499 426.817 606.257 427.019C606.018 427.221 605.837 427.496 605.715 427.844C605.595 428.192 605.536 428.588 605.536 429.032C605.536 429.477 605.595 429.873 605.715 430.221C605.837 430.569 606.018 430.844 606.257 431.046C606.499 431.245 606.797 431.344 607.152 431.344ZM615.155 432.98C614.668 432.98 614.233 432.895 613.852 432.726C613.471 432.554 613.169 432.3 612.947 431.966C612.729 431.628 612.619 431.207 612.619 430.703C612.619 430.279 612.697 429.922 612.853 429.634C613.009 429.346 613.221 429.114 613.489 428.938C613.758 428.762 614.063 428.63 614.404 428.54C614.749 428.451 615.11 428.388 615.488 428.351C615.932 428.305 616.29 428.262 616.562 428.222C616.834 428.179 617.031 428.116 617.153 428.033C617.276 427.95 617.337 427.828 617.337 427.665V427.635C617.337 427.321 617.238 427.077 617.039 426.905C616.843 426.732 616.565 426.646 616.204 426.646C615.823 426.646 615.519 426.731 615.294 426.9C615.069 427.065 614.919 427.274 614.847 427.526L612.888 427.367C612.987 426.903 613.183 426.502 613.474 426.164C613.766 425.822 614.142 425.561 614.603 425.378C615.067 425.193 615.604 425.1 616.214 425.1C616.638 425.1 617.044 425.15 617.432 425.249C617.823 425.348 618.169 425.503 618.471 425.711C618.776 425.92 619.016 426.189 619.192 426.517C619.367 426.842 619.455 427.231 619.455 427.685V432.836H617.447V431.777H617.387C617.264 432.015 617.1 432.226 616.895 432.408C616.689 432.587 616.442 432.728 616.154 432.831C615.866 432.93 615.533 432.98 615.155 432.98ZM615.761 431.518C616.073 431.518 616.348 431.457 616.587 431.334C616.825 431.208 617.013 431.039 617.148 430.827C617.284 430.615 617.352 430.375 617.352 430.106V429.296C617.286 429.339 617.195 429.379 617.079 429.415C616.966 429.448 616.839 429.48 616.696 429.51C616.553 429.536 616.411 429.561 616.268 429.584C616.126 429.604 615.997 429.622 615.881 429.639C615.632 429.675 615.415 429.733 615.229 429.813C615.044 429.893 614.9 430 614.797 430.136C614.694 430.269 614.643 430.434 614.643 430.633C614.643 430.922 614.747 431.142 614.956 431.295C615.168 431.444 615.437 431.518 615.761 431.518ZM628.152 427.377L626.213 427.496C626.18 427.33 626.109 427.181 625.999 427.049C625.89 426.913 625.746 426.805 625.567 426.726C625.391 426.643 625.181 426.601 624.935 426.601C624.607 426.601 624.331 426.671 624.105 426.81C623.88 426.946 623.767 427.128 623.767 427.357C623.767 427.539 623.84 427.693 623.986 427.819C624.132 427.945 624.382 428.046 624.737 428.123L626.119 428.401C626.861 428.553 627.415 428.799 627.779 429.137C628.144 429.475 628.326 429.919 628.326 430.469C628.326 430.97 628.179 431.409 627.884 431.787C627.592 432.165 627.191 432.46 626.68 432.672C626.173 432.88 625.588 432.985 624.925 432.985C623.915 432.985 623.109 432.774 622.509 432.353C621.913 431.929 621.563 431.353 621.46 430.623L623.543 430.514C623.606 430.822 623.759 431.058 624.001 431.22C624.243 431.379 624.553 431.459 624.93 431.459C625.302 431.459 625.6 431.387 625.825 431.245C626.054 431.099 626.17 430.912 626.173 430.683C626.17 430.491 626.089 430.333 625.93 430.211C625.771 430.085 625.525 429.989 625.194 429.922L623.872 429.659C623.126 429.51 622.571 429.251 622.206 428.883C621.845 428.515 621.664 428.046 621.664 427.476C621.664 426.986 621.797 426.563 622.062 426.209C622.33 425.854 622.706 425.58 623.19 425.388C623.678 425.196 624.248 425.1 624.901 425.1C625.865 425.1 626.624 425.304 627.178 425.711C627.734 426.119 628.059 426.674 628.152 427.377ZM634.421 425.199V426.79H629.823V425.199H634.421ZM630.867 423.37H632.985V430.489C632.985 430.685 633.015 430.837 633.074 430.946C633.134 431.053 633.217 431.127 633.323 431.17C633.432 431.213 633.558 431.235 633.701 431.235C633.8 431.235 633.899 431.227 633.999 431.21C634.098 431.19 634.175 431.175 634.228 431.165L634.561 432.741C634.455 432.774 634.305 432.812 634.113 432.856C633.921 432.902 633.687 432.93 633.412 432.94C632.902 432.96 632.454 432.892 632.07 432.736C631.689 432.58 631.392 432.339 631.18 432.01C630.968 431.682 630.863 431.268 630.867 430.768V423.37ZM636.501 432.836V425.199H638.52V426.547H638.609C638.768 426.099 639.033 425.746 639.404 425.488C639.776 425.229 640.22 425.1 640.737 425.1C641.261 425.1 641.706 425.231 642.074 425.493C642.442 425.751 642.687 426.103 642.81 426.547H642.89C643.045 426.109 643.327 425.759 643.735 425.498C644.146 425.232 644.631 425.1 645.191 425.1C645.904 425.1 646.482 425.327 646.927 425.781C647.374 426.232 647.598 426.871 647.598 427.7V432.836H645.485V428.118C645.485 427.693 645.372 427.375 645.147 427.163C644.921 426.951 644.64 426.845 644.302 426.845C643.917 426.845 643.617 426.968 643.402 427.213C643.186 427.455 643.078 427.775 643.078 428.172V432.836H641.025V428.073C641.025 427.698 640.918 427.4 640.702 427.178C640.49 426.956 640.21 426.845 639.862 426.845C639.627 426.845 639.414 426.905 639.226 427.024C639.04 427.14 638.892 427.304 638.783 427.516C638.674 427.725 638.619 427.97 638.619 428.252V432.836H636.501ZM652.148 432.98C651.661 432.98 651.227 432.895 650.846 432.726C650.464 432.554 650.163 432.3 649.941 431.966C649.722 431.628 649.613 431.207 649.613 430.703C649.613 430.279 649.691 429.922 649.846 429.634C650.002 429.346 650.214 429.114 650.483 428.938C650.751 428.762 651.056 428.63 651.397 428.54C651.742 428.451 652.103 428.388 652.481 428.351C652.925 428.305 653.283 428.262 653.555 428.222C653.827 428.179 654.024 428.116 654.147 428.033C654.269 427.95 654.331 427.828 654.331 427.665V427.635C654.331 427.321 654.231 427.077 654.032 426.905C653.837 426.732 653.558 426.646 653.197 426.646C652.816 426.646 652.513 426.731 652.287 426.9C652.062 427.065 651.913 427.274 651.84 427.526L649.881 427.367C649.981 426.903 650.176 426.502 650.468 426.164C650.759 425.822 651.136 425.561 651.596 425.378C652.06 425.193 652.597 425.1 653.207 425.1C653.631 425.1 654.037 425.15 654.425 425.249C654.816 425.348 655.163 425.503 655.464 425.711C655.769 425.92 656.009 426.189 656.185 426.517C656.361 426.842 656.449 427.231 656.449 427.685V432.836H654.44V431.777H654.38C654.258 432.015 654.094 432.226 653.888 432.408C653.683 432.587 653.436 432.728 653.147 432.831C652.859 432.93 652.526 432.98 652.148 432.98ZM652.755 431.518C653.066 431.518 653.341 431.457 653.58 431.334C653.819 431.208 654.006 431.039 654.142 430.827C654.278 430.615 654.346 430.375 654.346 430.106V429.296C654.279 429.339 654.188 429.379 654.072 429.415C653.959 429.448 653.832 429.48 653.689 429.51C653.547 429.536 653.404 429.561 653.262 429.584C653.119 429.604 652.99 429.622 652.874 429.639C652.625 429.675 652.408 429.733 652.223 429.813C652.037 429.893 651.893 430 651.79 430.136C651.687 430.269 651.636 430.434 651.636 430.633C651.636 430.922 651.741 431.142 651.949 431.295C652.161 431.444 652.43 431.518 652.755 431.518ZM665.145 427.377L663.206 427.496C663.173 427.33 663.102 427.181 662.993 427.049C662.883 426.913 662.739 426.805 662.56 426.726C662.385 426.643 662.174 426.601 661.929 426.601C661.601 426.601 661.324 426.671 661.099 426.81C660.873 426.946 660.76 427.128 660.76 427.357C660.76 427.539 660.833 427.693 660.979 427.819C661.125 427.945 661.375 428.046 661.73 428.123L663.112 428.401C663.854 428.553 664.408 428.799 664.773 429.137C665.137 429.475 665.319 429.919 665.319 430.469C665.319 430.97 665.172 431.409 664.877 431.787C664.585 432.165 664.184 432.46 663.674 432.672C663.167 432.88 662.582 432.985 661.919 432.985C660.908 432.985 660.103 432.774 659.503 432.353C658.906 431.929 658.556 431.353 658.454 430.623L660.537 430.514C660.6 430.822 660.752 431.058 660.994 431.22C661.236 431.379 661.546 431.459 661.924 431.459C662.295 431.459 662.593 431.387 662.819 431.245C663.047 431.099 663.163 430.912 663.167 430.683C663.163 430.491 663.082 430.333 662.923 430.211C662.764 430.085 662.519 429.989 662.187 429.922L660.865 429.659C660.119 429.51 659.564 429.251 659.199 428.883C658.838 428.515 658.657 428.046 658.657 427.476C658.657 426.986 658.79 426.563 659.055 426.209C659.324 425.854 659.7 425.58 660.184 425.388C660.671 425.196 661.241 425.1 661.894 425.1C662.858 425.1 663.617 425.304 664.171 425.711C664.728 426.119 665.053 426.674 665.145 427.377ZM671.415 425.199V426.79H666.816V425.199H671.415ZM667.86 423.37H669.978V430.489C669.978 430.685 670.008 430.837 670.068 430.946C670.127 431.053 670.21 431.127 670.316 431.17C670.425 431.213 670.551 431.235 670.694 431.235C670.793 431.235 670.893 431.227 670.992 431.21C671.092 431.19 671.168 431.175 671.221 431.165L671.554 432.741C671.448 432.774 671.299 432.812 671.107 432.856C670.914 432.902 670.681 432.93 670.406 432.94C669.895 432.96 669.448 432.892 669.063 432.736C668.682 432.58 668.385 432.339 668.173 432.01C667.961 431.682 667.857 431.268 667.86 430.768V423.37ZM676.893 432.985C676.107 432.985 675.431 432.826 674.864 432.508C674.301 432.186 673.866 431.732 673.562 431.145C673.257 430.555 673.104 429.858 673.104 429.052C673.104 428.267 673.257 427.577 673.562 426.984C673.866 426.391 674.296 425.928 674.849 425.597C675.406 425.266 676.059 425.1 676.808 425.1C677.312 425.1 677.781 425.181 678.215 425.344C678.652 425.503 679.034 425.743 679.358 426.064C679.687 426.386 679.942 426.79 680.124 427.277C680.306 427.761 680.398 428.328 680.398 428.978V429.559H673.949V428.247H678.404C678.404 427.942 678.338 427.672 678.205 427.437C678.072 427.201 677.889 427.017 677.653 426.885C677.421 426.749 677.151 426.681 676.843 426.681C676.521 426.681 676.236 426.755 675.988 426.905C675.742 427.05 675.55 427.248 675.411 427.496C675.272 427.741 675.201 428.015 675.197 428.317V429.564C675.197 429.942 675.267 430.269 675.406 430.544C675.549 430.819 675.749 431.031 676.008 431.18C676.266 431.329 676.573 431.404 676.927 431.404C677.163 431.404 677.378 431.371 677.574 431.304C677.769 431.238 677.937 431.139 678.076 431.006C678.215 430.874 678.321 430.711 678.394 430.519L680.353 430.648C680.253 431.119 680.049 431.53 679.741 431.881C679.436 432.229 679.042 432.501 678.558 432.696C678.077 432.889 677.522 432.985 676.893 432.985ZM682.48 432.836V425.199H684.533V426.532H684.612C684.752 426.058 684.985 425.7 685.313 425.458C685.642 425.213 686.019 425.09 686.447 425.09C686.553 425.09 686.667 425.097 686.79 425.11C686.913 425.123 687.02 425.141 687.113 425.165V427.044C687.014 427.014 686.876 426.987 686.7 426.964C686.525 426.941 686.364 426.929 686.218 426.929C685.907 426.929 685.628 426.997 685.383 427.133C685.141 427.266 684.949 427.451 684.806 427.69C684.667 427.929 684.597 428.204 684.597 428.515V432.836H682.48ZM695.262 427.377L693.323 427.496C693.29 427.33 693.218 427.181 693.109 427.049C693 426.913 692.856 426.805 692.677 426.726C692.501 426.643 692.29 426.601 692.045 426.601C691.717 426.601 691.44 426.671 691.215 426.81C690.99 426.946 690.877 427.128 690.877 427.357C690.877 427.539 690.95 427.693 691.096 427.819C691.241 427.945 691.492 428.046 691.846 428.123L693.228 428.401C693.971 428.553 694.524 428.799 694.889 429.137C695.254 429.475 695.436 429.919 695.436 430.469C695.436 430.97 695.288 431.409 694.993 431.787C694.702 432.165 694.301 432.46 693.79 432.672C693.283 432.88 692.698 432.985 692.035 432.985C691.024 432.985 690.219 432.774 689.619 432.353C689.022 431.929 688.673 431.353 688.57 430.623L690.653 430.514C690.716 430.822 690.869 431.058 691.111 431.22C691.352 431.379 691.662 431.459 692.04 431.459C692.411 431.459 692.71 431.387 692.935 431.245C693.164 431.099 693.28 430.912 693.283 430.683C693.28 430.491 693.199 430.333 693.04 430.211C692.88 430.085 692.635 429.989 692.304 429.922L690.981 429.659C690.236 429.51 689.68 429.251 689.316 428.883C688.955 428.515 688.774 428.046 688.774 427.476C688.774 426.986 688.906 426.563 689.172 426.209C689.44 425.854 689.816 425.58 690.3 425.388C690.787 425.196 691.357 425.1 692.01 425.1C692.975 425.1 693.734 425.304 694.287 425.711C694.844 426.119 695.169 426.674 695.262 427.377Z" fill="white"/>
<circle cx="639.487" cy="399.665" r="7.59602" fill="#030303"/>
<defs>
<radialGradient id="paint0_radial_86_74" cx="0" cy="0" r="1" gradientUnits="userSpaceOnUse" gradientTransform="translate(381.244 512) rotate(88.1815) scale(512.258 397.968)">
<stop stop-color="#D9D9D9" stop-opacity="0.04"/>
<stop offset="1" stop-color="#D9D9D9" stop-opacity="0.97"/>
</radialGradient>
</defs>
</svg>
