<svg width="1440" height="1024" viewBox="0 0 1440 1024" fill="none" xmlns="http://www.w3.org/2000/svg">
<path d="M0 4C0 -12.5685 13.4315 -26 30 -26H1410C1426.57 -26 1440 -12.5685 1440 4V994C1440 1010.57 1426.57 1024 1410 1024H30C13.4314 1024 0 1010.57 0 994V4Z" fill="url(#paint0_radial_88_82)" fill-opacity="0.37"/>
<path d="M57.2905 326.722L56.5071 328.307L55.6106 327.864L54.8272 329.448L55.7237 329.892L54.9402 331.476L54.0438 331.033L53.2604 332.618L54.1568 333.061L53.3734 334.646L52.4769 334.203L51.6935 335.787L52.59 336.231L51.8065 337.815L50.9101 337.372L50.5184 338.164C50.5184 338.164 50.5184 338.165 50.5184 338.165C50.3846 338.435 50.2475 338.711 50.1074 338.991L51.0019 339.438C50.7332 339.976 50.4535 340.53 50.1648 341.098L49.2735 340.644C48.9994 341.183 48.7169 341.734 48.4277 342.294L49.3163 342.753C49.0364 343.295 48.7503 343.846 48.4593 344.403L47.5731 343.94C47.2898 344.482 47.0018 345.03 46.7105 345.581L47.5947 346.048C47.3068 346.593 47.0157 347.141 46.7226 347.69L45.8404 347.219C45.5497 347.764 45.2569 348.309 44.9634 348.854L45.8435 349.328C45.5486 349.875 45.253 350.421 44.9577 350.963L44.0795 350.485C43.7818 351.031 43.4845 351.575 43.1889 352.112L44.0651 352.594C43.763 353.143 43.4626 353.686 43.1654 354.22L42.2915 353.734C41.986 354.283 41.6839 354.823 41.3867 355.351L42.2581 355.842C41.9465 356.396 41.6401 356.936 41.3406 357.461L40.4722 356.965C40.1558 357.519 39.8474 358.055 39.5489 358.569L40.4136 359.071C40.087 359.633 39.7721 360.17 39.4713 360.676L38.6118 360.165C38.4499 360.437 38.2923 360.7 38.1395 360.953C37.9716 361.231 37.8081 361.503 37.6489 361.769L38.5069 362.282C38.1651 362.853 37.8434 363.397 37.5405 363.916L36.6767 363.412C36.3378 363.993 36.0215 364.546 35.7265 365.074L36.5995 365.562C36.2725 366.147 35.9728 366.701 35.6984 367.228L34.8112 366.767C34.4949 367.375 34.2097 367.953 33.9533 368.509L34.8613 368.928C34.5809 369.535 34.3376 370.112 34.1267 370.672L33.191 370.319C32.9478 370.964 32.7447 371.589 32.5762 372.213L33.5416 372.474C33.3753 373.09 33.2455 373.7 33.1453 374.326L32.1579 374.168C32.0555 374.807 31.9832 375.458 31.9341 376.135L32.9314 376.207C32.8879 376.807 32.8628 377.433 32.8513 378.099L31.8514 378.082C31.846 378.396 31.8435 378.718 31.8435 379.049C31.8435 379.43 31.8438 379.793 31.8451 380.139L32.8451 380.135C32.8482 380.952 32.8572 381.666 32.8826 382.297L31.8834 382.337C31.9186 383.212 31.9859 383.973 32.1219 384.642L33.1018 384.443C33.2666 385.254 33.5364 385.865 33.9777 386.394L33.2097 387.035C33.7162 387.642 34.3708 388.125 35.1557 388.59L35.6648 387.729C36.1962 388.043 36.8275 388.369 37.5777 388.74L37.1346 389.637C37.4419 389.788 37.768 389.947 38.1127 390.115L38.1129 390.115C38.4002 390.255 38.6948 390.409 38.9964 390.579L39.4876 389.708C40.07 390.037 40.67 390.415 41.2851 390.841L40.716 391.663C41.252 392.034 41.8024 392.444 42.3654 392.892L42.9877 392.109C43.5216 392.533 44.0644 392.989 44.6145 393.474L43.9531 394.224C44.4571 394.668 44.9685 395.139 45.4858 395.635L46.1777 394.913C46.6759 395.391 47.1786 395.89 47.6849 396.41L46.9682 397.108C47.4436 397.596 47.9226 398.104 48.4044 398.63L49.1418 397.955C49.611 398.467 50.0823 398.996 50.5549 399.54L49.7996 400.196C50.2506 400.715 50.703 401.25 51.1562 401.799L51.9272 401.162C52.3717 401.7 52.8166 402.251 53.2614 402.815L52.4764 403.434C52.9051 403.977 53.3338 404.533 53.7618 405.099L54.5596 404.496C54.9819 405.055 55.4034 405.624 55.8235 406.203L55.014 406.79C55.4221 407.353 55.8289 407.925 56.234 408.507L57.0545 407.935C57.456 408.511 57.8558 409.096 58.2533 409.689L57.4226 410.246C57.6174 410.536 57.8117 410.829 58.0053 411.124C58.2 411.42 58.4052 411.713 58.6239 412.006L59.425 411.408C59.8108 411.924 60.241 412.437 60.7358 412.961L60.0089 413.648C60.4654 414.131 60.971 414.619 61.5386 415.122L62.2018 414.374C62.6732 414.791 63.1917 415.222 63.7661 415.672L63.1497 416.459C63.662 416.86 64.2158 417.274 64.8163 417.706L65.3996 416.893C65.9176 417.265 66.4727 417.651 67.0687 418.054L66.5088 418.883C67.0483 419.247 67.62 419.625 68.2266 420.017L68.7696 419.177C69.3115 419.527 69.8823 419.89 70.4839 420.267L69.9534 421.115C70.5072 421.461 71.0866 421.819 71.6932 422.19L72.2144 421.336C72.7716 421.676 73.3523 422.027 73.9575 422.39L73.4436 423.248C74.0083 423.586 74.5942 423.934 75.2021 424.293L75.7104 423.432C76.2745 423.765 76.8579 424.107 77.4614 424.459L76.9575 425.323C77.5273 425.655 78.1149 425.996 78.7208 426.346L79.221 425.48C79.7926 425.811 80.3808 426.149 80.986 426.496L80.4886 427.364C81.0633 427.693 81.6533 428.03 82.2591 428.375L82.7541 427.506C83.3296 427.834 83.9194 428.169 84.524 428.512L84.0309 429.382C84.6084 429.709 85.1992 430.043 85.8038 430.384L86.2953 429.514C86.8735 429.84 87.4643 430.173 88.0681 430.512L87.578 431.384C87.8746 431.551 88.1744 431.719 88.4773 431.889L89.3466 432.377L89.8363 431.505C90.4118 431.829 90.9793 432.148 91.5388 432.462L91.0488 433.334C91.6191 433.654 92.1811 433.97 92.7349 434.282L93.2254 433.411C93.8037 433.736 94.3733 434.057 94.9341 434.373L94.443 435.244C95.0122 435.565 95.5725 435.881 96.1239 436.193L96.6159 435.322C97.1948 435.649 97.7641 435.972 98.3238 436.289L97.8306 437.159C98.401 437.482 98.9615 437.801 99.5122 438.114L100.007 437.245C100.583 437.573 101.149 437.896 101.705 438.214L101.208 439.082C101.781 439.41 102.343 439.732 102.894 440.049L103.393 439.183C103.964 439.511 104.523 439.834 105.071 440.152L104.569 441.017C105.145 441.351 105.709 441.68 106.26 442.002L106.766 441.14C107.333 441.472 107.888 441.799 108.431 442.12L107.921 442.981C108.492 443.319 109.049 443.651 109.592 443.978L110.108 443.121C110.68 443.464 111.237 443.802 111.779 444.134L111.258 444.987C111.821 445.331 112.368 445.669 112.9 446.002L113.43 445.153C113.991 445.504 114.535 445.848 115.064 446.186L114.524 447.028C115.086 447.388 115.629 447.741 116.154 448.088L116.705 447.254C117.264 447.623 117.803 447.987 118.324 448.345L117.758 449.169C118.304 449.544 118.829 449.913 119.333 450.276L119.918 449.465C120.461 449.856 120.982 450.242 121.482 450.624L120.875 451.418C121.399 451.818 121.898 452.213 122.375 452.603L123.008 451.829C123.526 452.253 124.018 452.673 124.486 453.091L123.821 453.838C124.306 454.271 124.765 454.701 125.199 455.131L125.902 454.42C126.377 454.889 126.824 455.359 127.247 455.831L126.501 456.498C126.928 456.976 127.329 457.455 127.705 457.94L128.495 457.326C128.897 457.845 129.275 458.37 129.63 458.905L128.797 459.458C129.143 459.979 129.467 460.51 129.773 461.054L130.645 460.564C130.961 461.126 131.257 461.7 131.539 462.292L130.636 462.721C130.902 463.28 131.154 463.856 131.396 464.453L132.323 464.077C132.561 464.664 132.789 465.269 133.009 465.895L132.066 466.227C132.271 466.81 132.47 467.413 132.665 468.038L133.62 467.74C133.807 468.343 133.991 468.964 134.173 469.606L133.211 469.878C133.381 470.478 133.549 471.098 133.718 471.739L134.685 471.485C134.845 472.094 135.006 472.723 135.168 473.371L134.198 473.613C134.35 474.222 134.504 474.849 134.66 475.495L135.632 475.26C135.78 475.874 135.931 476.504 136.085 477.152L135.112 477.384C135.187 477.7 135.263 478.021 135.34 478.346L136.31 478.116L135.34 478.346C135.414 478.656 135.485 478.965 135.556 479.276L136.531 479.055C136.672 479.679 136.807 480.306 136.936 480.94L135.957 481.14C136.082 481.754 136.202 482.377 136.317 483.012L137.301 482.834C137.413 483.454 137.52 484.086 137.623 484.736L136.636 484.893C136.733 485.505 136.827 486.134 136.917 486.782L137.907 486.644C137.993 487.262 138.076 487.897 138.155 488.554L137.163 488.675C137.237 489.288 137.31 489.92 137.379 490.575L138.374 490.469C138.44 491.09 138.504 491.73 138.567 492.392L137.571 492.486C137.629 493.101 137.686 493.736 137.741 494.392L138.737 494.308C138.79 494.93 138.84 495.571 138.89 496.233L137.893 496.308C137.94 496.929 137.986 497.568 138.031 498.228L139.028 498.16C139.071 498.782 139.112 499.421 139.153 500.079L138.155 500.141C138.194 500.764 138.232 501.403 138.269 502.06L139.268 502.003C139.303 502.629 139.338 503.27 139.373 503.929L138.375 503.981C138.408 504.607 138.44 505.247 138.473 505.904L139.471 505.855C139.502 506.482 139.533 507.124 139.563 507.781L138.564 507.827C138.593 508.454 138.622 509.095 138.65 509.751L139.649 509.707C139.677 510.336 139.704 510.978 139.731 511.634L138.732 511.675C138.758 512.305 138.784 512.947 138.81 513.602L139.809 513.562C139.834 514.194 139.859 514.837 139.883 515.494L138.884 515.531C138.908 516.164 138.932 516.809 138.956 517.465L139.955 517.429C139.978 518.057 140.001 518.696 140.023 519.347L139.024 519.382C139.046 520.012 139.068 520.653 139.09 521.304L140.09 521.27C140.111 521.904 140.133 522.547 140.154 523.201L139.155 523.234C139.176 523.87 139.197 524.515 139.218 525.171L140.218 525.139C140.238 525.768 140.258 526.407 140.279 527.055L139.279 527.086L139.31 528.064L139.341 529.061L140.34 529.029C140.361 529.692 140.383 530.359 140.405 531.028L139.405 531.061C139.427 531.725 139.449 532.392 139.472 533.061L140.471 533.028C140.494 533.692 140.517 534.358 140.54 535.027L139.541 535.061C139.564 535.726 139.587 536.393 139.611 537.061L140.61 537.026C140.634 537.691 140.658 538.357 140.683 539.025L139.683 539.061C139.708 539.727 139.732 540.394 139.757 541.061L140.757 541.023C140.782 541.69 140.807 542.356 140.833 543.022L139.833 543.061C139.859 543.728 139.885 544.394 139.911 545.06L140.91 545.021C140.936 545.688 140.963 546.355 140.989 547.02L139.99 547.06C140.017 547.728 140.044 548.394 140.071 549.059L141.07 549.018C141.098 549.687 141.125 550.353 141.153 551.017L140.154 551.059C140.182 551.728 140.21 552.394 140.238 553.058L141.237 553.015C141.266 553.685 141.295 554.351 141.324 555.014L140.325 555.057C140.354 555.728 140.383 556.394 140.413 557.056L141.412 557.012C141.441 557.683 141.471 558.349 141.501 559.01L140.502 559.056C140.533 559.728 140.564 560.395 140.594 561.055L141.593 561.008C141.624 561.681 141.656 562.348 141.687 563.007L140.688 563.054C140.72 563.728 140.752 564.395 140.784 565.053L141.783 565.004C141.816 565.679 141.849 566.345 141.881 567.001L140.883 567.051C140.916 567.727 140.95 568.393 140.984 569.048L141.982 568.996C142.017 569.674 142.052 570.34 142.086 570.993L141.087 571.046C141.123 571.728 141.159 572.396 141.195 573.049L142.193 572.995C142.231 573.678 142.268 574.344 142.304 574.992L141.306 575.048C141.345 575.733 141.383 576.398 141.421 577.041L142.419 576.982C142.46 577.676 142.501 578.345 142.541 578.987L141.543 579.049C141.586 579.747 141.629 580.413 141.671 581.044L142.669 580.978C142.716 581.687 142.762 582.352 142.807 582.969L141.81 583.042C141.835 583.391 141.86 583.724 141.885 584.042L142.792 583.972L141.885 584.043C141.908 584.347 141.932 584.67 141.955 585.01L142.953 584.942C142.993 585.539 143.034 586.189 143.073 586.887L142.075 586.943C142.109 587.555 142.143 588.206 142.176 588.892L143.175 588.843C143.205 589.466 143.235 590.119 143.264 590.799L142.265 590.842C142.292 591.472 142.319 592.126 142.345 592.802L143.344 592.763C143.369 593.396 143.393 594.047 143.416 594.717L142.417 594.752C142.439 595.387 142.461 596.038 142.482 596.704L143.482 596.672C143.502 597.31 143.523 597.963 143.542 598.629L142.543 598.658C142.562 599.298 142.58 599.95 142.598 600.614L143.598 600.586C143.616 601.229 143.633 601.882 143.65 602.544L142.65 602.57C142.666 603.213 142.682 603.865 142.698 604.526L143.697 604.503C143.713 605.147 143.727 605.8 143.742 606.461L142.742 606.483C142.756 607.128 142.77 607.781 142.783 608.44L143.783 608.42C143.796 609.066 143.809 609.72 143.821 610.379L142.821 610.397C142.834 611.044 142.845 611.697 142.857 612.355L143.857 612.338C143.868 612.986 143.879 613.639 143.89 614.297L142.89 614.314C142.9 614.962 142.91 615.615 142.92 616.271L143.92 616.257C143.929 616.905 143.939 617.557 143.948 618.213L142.948 618.227C142.957 618.876 142.965 619.528 142.973 620.183L143.973 620.171C143.981 620.821 143.989 621.473 143.996 622.129L142.996 622.14C143.003 622.79 143.01 623.443 143.017 624.098L144.017 624.088C144.023 624.739 144.029 625.392 144.035 626.047L143.035 626.055C143.041 626.707 143.046 627.359 143.051 628.013L144.051 628.006C144.056 628.657 144.061 629.31 144.065 629.964L143.065 629.97C143.07 630.622 143.073 631.275 143.077 631.927L144.077 631.922C144.08 632.575 144.084 633.228 144.086 633.881L143.086 633.885C143.089 634.537 143.091 635.19 143.093 635.842L144.093 635.839C144.095 636.493 144.097 637.146 144.098 637.798L143.098 637.8C143.099 638.453 143.1 639.105 143.1 639.757L144.1 639.756C144.101 640.41 144.101 641.063 144.1 641.715L143.1 641.714C143.1 642.368 143.099 643.021 143.098 643.672L144.098 643.674C144.096 644.329 144.094 644.982 144.092 645.633L143.092 645.63C143.091 645.955 143.09 646.281 143.089 646.606L143.084 647.653L144.084 647.657C144.082 648.349 144.079 649.031 144.076 649.702L143.076 649.698L143.069 651.751L144.069 651.755C144.066 652.445 144.064 653.123 144.061 653.789L143.061 653.786C143.059 654.487 143.057 655.174 143.054 655.85L144.054 655.853C144.052 656.542 144.05 657.217 144.048 657.88L143.048 657.877C143.046 658.579 143.045 659.268 143.043 659.942L144.043 659.944C144.042 660.642 144.04 661.324 144.039 661.993L143.039 661.991C143.038 662.682 143.037 663.358 143.037 664.019L144.037 664.02C144.036 664.725 144.036 665.413 144.036 666.084L143.036 666.084C143.036 666.787 143.037 667.471 143.038 668.138L144.038 668.137C144.039 668.837 144.04 669.518 144.043 670.18L143.043 670.183C143.045 670.884 143.047 671.564 143.051 672.224L144.051 672.219C144.054 672.921 144.059 673.601 144.064 674.259L143.064 674.267C143.069 674.975 143.075 675.659 143.083 676.319L144.083 676.308C144.09 677.017 144.099 677.698 144.109 678.354L143.109 678.369C143.12 679.086 143.133 679.772 143.147 680.43L144.146 680.409C144.162 681.127 144.179 681.811 144.198 682.463L143.198 682.492C143.219 683.214 143.242 683.898 143.268 684.547L144.267 684.507C144.296 685.23 144.328 685.91 144.364 686.55L143.365 686.605C143.406 687.338 143.451 688.022 143.502 688.665L144.498 688.587C144.556 689.32 144.62 689.995 144.691 690.625L143.697 690.737C143.781 691.485 143.875 692.173 143.981 692.818L144.968 692.657C145.085 693.375 145.216 694.034 145.362 694.663L144.388 694.89C144.553 695.598 144.737 696.267 144.939 696.931L145.896 696.639C146.091 697.277 146.305 697.913 146.541 698.579L145.598 698.913C145.71 699.231 145.827 699.555 145.948 699.888C146.049 700.164 146.151 700.439 146.254 700.712L147.19 700.359C147.397 700.907 147.609 701.447 147.822 701.974L146.896 702.35C147.122 702.908 147.351 703.451 147.578 703.972L148.495 703.572C148.737 704.128 148.978 704.657 149.212 705.152L148.308 705.58C148.583 706.159 148.85 706.694 149.105 707.173L149.988 706.703C150.284 707.259 150.56 707.73 150.803 708.093C150.722 708.108 150.623 708.124 150.504 708.141L150.544 708.422L150.05 708.764C150.143 708.899 150.245 709.037 150.353 709.169C149.933 709.219 149.4 709.268 148.762 709.316L148.688 708.318C148.144 708.359 147.519 708.398 146.82 708.436L146.875 709.435C146.294 709.466 145.663 709.497 144.986 709.526L144.942 708.527C144.349 708.553 143.72 708.578 143.056 708.602L143.092 709.602C142.49 709.624 141.86 709.645 141.203 709.665L141.172 708.666C140.566 708.684 139.937 708.702 139.287 708.72L139.313 709.719C138.701 709.736 138.07 709.751 137.422 709.766L137.399 708.767C136.784 708.781 136.153 708.794 135.508 708.807L135.528 709.807C134.912 709.819 134.282 709.831 133.64 709.842L133.623 708.843C133.005 708.853 132.375 708.863 131.734 708.873L131.748 709.873C131.127 709.882 130.496 709.891 129.855 709.899L129.842 708.899C129.221 708.907 128.59 708.914 127.951 708.921L127.961 709.921C127.34 709.927 126.71 709.933 126.072 709.939L126.063 708.939C125.441 708.944 124.811 708.949 124.175 708.953L124.181 709.953C123.557 709.958 122.927 709.961 122.29 709.964L122.285 708.964C121.661 708.967 121.031 708.97 120.396 708.972L120.399 709.972C119.773 709.974 119.143 709.976 118.507 709.977L118.506 708.977C118.191 708.977 117.875 708.977 117.558 708.978L116.573 708.978L116.573 709.978L114.604 709.979L114.603 708.979L112.634 708.981L112.634 709.981L110.665 709.982L110.664 708.982L108.695 708.983L108.695 709.983L106.726 709.984L106.725 708.984L104.755 708.986L104.756 709.986L102.786 709.987L102.786 708.987L100.816 708.988L100.817 709.988L98.8474 709.989L98.8467 708.989L96.8772 708.991L96.8778 709.991L94.9082 709.992L94.9076 708.992L92.938 708.993L92.9387 709.993L90.9691 709.994L90.9685 708.994L88.9989 708.996L88.9995 709.996L87.03 709.997L87.0293 708.997L85.0598 708.998L85.0604 709.998L83.108 709.999L83.1629 709.111L83.0903 709.106L83.0902 708.999L82.1678 709L82.2823 707.147L83.2804 707.209L83.3978 705.307L82.3997 705.246L82.5172 703.344L83.5153 703.406L83.6328 701.504L82.6347 701.442L82.7522 699.541L83.7503 699.602L83.8678 697.701L82.8697 697.639L82.9871 695.737L83.9852 695.799L84.1027 693.897L83.1046 693.835L83.2221 691.934L84.2202 691.995L84.2789 691.045C84.2997 690.709 84.3201 690.374 84.3402 690.04L83.3421 689.979C83.3823 689.311 83.4215 688.645 83.4595 687.98L84.4579 688.037C84.4963 687.366 84.5335 686.697 84.5697 686.03L83.5712 685.976C83.6074 685.307 83.6425 684.641 83.6765 683.977L84.6752 684.029C84.7096 683.357 84.7429 682.687 84.775 682.02L83.7761 681.972C83.8084 681.302 83.8396 680.634 83.8696 679.97L84.8685 680.015C84.8988 679.344 84.9279 678.676 84.9559 678.012L83.9568 677.97C83.9851 677.297 84.0122 676.628 84.0381 675.963L85.0374 676.002C85.0635 675.33 85.0885 674.663 85.1123 673.999L84.1129 673.963C84.137 673.291 84.1599 672.622 84.1815 671.958L85.181 671.99C85.203 671.316 85.2237 670.646 85.2432 669.981L84.2437 669.952C84.2633 669.281 84.2817 668.616 84.2989 667.955L85.2986 667.981C85.3161 667.304 85.3324 666.633 85.3474 665.967L84.3477 665.945C84.3628 665.271 84.3767 664.602 84.3892 663.939L85.389 663.958C85.4017 663.285 85.4131 662.618 85.4231 661.958L84.4233 661.943C84.4335 661.266 84.4424 660.595 84.4499 659.932L85.4498 659.943C85.4574 659.265 85.4636 658.595 85.4683 657.932L84.4683 657.925C84.4731 657.25 84.4764 656.583 84.4782 655.924L85.4782 655.927C85.4801 655.25 85.4804 654.581 85.4791 653.922L84.4791 653.924C84.4777 653.243 84.4747 652.572 84.4701 651.912L85.4701 651.905C85.4652 651.223 85.4587 650.552 85.4503 649.892L84.4504 649.905C84.4418 649.225 84.4314 648.557 84.4191 647.902L85.4189 647.883C85.4061 647.2 85.3913 646.531 85.3744 645.877L84.3748 645.902C84.3572 645.22 84.3375 644.553 84.3157 643.904L85.3151 643.87C85.292 643.181 85.2664 642.512 85.2385 641.861L84.2394 641.904C84.2098 641.214 84.1774 640.546 84.1425 639.902L85.141 639.847C85.1029 639.146 85.0618 638.472 85.0175 637.827L84.0198 637.895C83.9714 637.19 83.9194 636.521 83.8637 635.888L84.8599 635.8C84.7965 635.079 84.7284 634.404 84.6554 633.776L83.662 633.891C83.5771 633.16 83.4857 632.498 83.3882 631.908L84.3748 631.745C84.2409 630.935 84.0917 630.234 83.9239 629.663L82.9645 629.945C82.6333 628.818 82.2512 628.356 81.8217 628.662L81.2413 627.848C80.8412 628.133 80.5599 628.6 80.3463 629.046L81.1808 629.446L80.3463 629.046C80.207 629.337 80.0812 629.709 79.9643 630.122L80.9264 630.394C80.7847 630.895 80.6365 631.533 80.4839 632.288L79.5037 632.091C79.3853 632.677 79.2649 633.331 79.1435 634.041L80.1292 634.209C80.0266 634.81 79.9228 635.454 79.8184 636.136L78.8299 635.985C78.7348 636.606 78.6394 637.258 78.544 637.937L79.5343 638.076C79.447 638.697 79.3597 639.34 79.2727 640.004L78.2812 639.874C78.1984 640.506 78.1158 641.155 78.0339 641.82L79.0263 641.943C78.9481 642.577 78.8704 643.225 78.7935 643.885L77.8002 643.769C77.7258 644.406 77.6522 645.055 77.5795 645.712L78.5734 645.822C78.5026 646.461 78.4328 647.108 78.3639 647.763L77.3694 647.658C77.3017 648.302 77.235 648.952 77.1695 649.606L78.1645 649.705C78.1001 650.35 78.0368 650.998 77.9749 651.65L76.9794 651.555C76.9178 652.203 76.8576 652.853 76.7989 653.504L77.7949 653.594C77.7365 654.242 77.6796 654.891 77.6245 655.539L76.6281 655.454C76.5726 656.106 76.5188 656.757 76.467 657.406L77.4638 657.485C77.4116 658.137 77.3614 658.787 77.3133 659.432L76.3161 659.358C76.2672 660.014 76.2205 660.666 76.1761 661.311L77.1737 661.38C77.1287 662.035 77.0861 662.685 77.0461 663.326L76.048 663.264C76.0068 663.926 75.9684 664.579 75.9329 665.222L76.9314 665.277C76.8949 665.94 76.8616 666.591 76.8318 667.229L75.8329 667.183C75.8017 667.851 75.7742 668.505 75.7509 669.141L76.7503 669.178C76.7256 669.85 76.7056 670.502 76.6906 671.131L75.6909 671.107C75.6829 671.439 75.6764 671.765 75.6712 672.084C75.6657 672.419 75.6616 672.767 75.6587 673.126L76.6587 673.133C76.6535 673.789 76.6526 674.483 76.6559 675.207L75.6559 675.211C75.6589 675.882 75.6654 676.577 75.6752 677.293L76.6751 677.28C76.6843 677.954 76.6964 678.647 76.7113 679.354L75.7115 679.375C75.7259 680.057 75.7428 680.751 75.7622 681.453L76.7618 681.425C76.7806 682.11 76.8018 682.802 76.8251 683.498L75.8257 683.531C75.8488 684.221 75.874 684.915 75.9012 685.608L76.9004 685.569C76.9275 686.261 76.9566 686.953 76.9876 687.64L75.9886 687.685C76.02 688.383 76.0533 689.077 76.0884 689.762L77.0871 689.711C77.1229 690.411 77.1605 691.102 77.1998 691.78L76.2014 691.838C76.2425 692.547 76.2854 693.241 76.3299 693.916L77.3278 693.85C77.3748 694.564 77.4237 695.255 77.4742 695.919L76.4771 695.994C76.504 696.348 76.5314 696.694 76.5592 697.031L76.649 698.119L77.6456 698.037L77.8251 700.212L76.8284 700.294L77.0079 702.469L78.0045 702.387L78.184 704.562L77.1874 704.644L77.3668 706.819L78.3634 706.737L78.5429 708.912L77.5463 708.995L77.6293 710H75.6418V709H73.6478V710H71.6539V709H69.66V710H67.6661V709H65.6721V710H63.6782V709H61.6843V710H59.6904V709H57.6964V710H55.7025V709H53.7086V710H51.7147V709H49.7208V710H47.7268V709H45.7329V710H43.739V709H41.7451V710H39.7511V709H37.7572V710H35.7633V709H33.7694V710H31.7754V709H29.7815V710H27.7876V709H25.7937V710H23.7998V709H21.8058V710H19.8119V709H17.818V710H15.8241V709H13.8301V710H11.8362V709H9.84229V710H7.84836V709H5.85443V710H3.8605V709H1.86658V710H-0.12735V709H-2.12128V710H-4.1152V709H-6.10913V710H-8.10306V709H-10.097V710H-12.0909V709H-14.0848V710H-16.0788V709H-18.0727V710H-20.0666V709H-22.0605V710H-24.0545V709H-26.0484V710H-28.0423V709H-30.0363V710H-32.0302V709H-34.0241V710H-36.018V709H-37.0149L-38.0288 709L-38.0288 710C-38.7029 710 -39.3732 710 -40.0399 710L-40.0398 709L-42.0286 709L-42.0288 710C-42.6881 710 -43.3437 709.999 -43.9957 709.999L-43.9955 708.999L-45.9649 708.999L-45.9652 709.999C-46.6413 709.999 -47.3134 709.998 -47.9816 709.998L-47.9812 708.998L-49.9736 708.997L-49.9741 709.997C-50.6343 709.997 -51.2905 709.997 -51.9429 709.996L-51.9423 708.996L-53.9083 708.995L-53.909 709.995C-54.5858 709.995 -55.2582 709.994 -55.9264 709.994L-55.9257 708.994L-57.9172 708.992L-57.918 709.992C-58.5776 709.992 -59.2329 709.991 -59.884 709.991L-59.8831 708.991L-61.86 708.989L-61.8611 709.989C-62.5368 709.988 -63.2078 709.987 -63.8742 709.986L-63.8731 708.986L-65.8582 708.984L-65.8595 709.984C-66.5166 709.983 -67.1691 709.982 -67.817 709.981L-67.8156 708.981L-69.8177 708.979L-69.8192 709.979C-70.4917 709.978 -71.1591 709.977 -71.8215 709.975L-71.8198 708.975L-73.7918 708.972L-73.7936 709.972C-74.4543 709.971 -75.1099 709.97 -75.7603 709.968L-75.7584 708.968L-77.7746 708.964L-77.7767 709.964C-78.4434 709.963 -79.1045 709.961 -79.7601 709.96L-79.7579 708.96L-81.7084 708.955L-81.7108 709.955C-82.3901 709.954 -83.0634 709.952 -83.7307 709.95L-83.728 708.95L-85.7183 708.945L-85.7212 709.945C-86.3787 709.943 -87.0303 709.941 -87.6759 709.939L-87.6728 708.939L-89.684 708.932L-89.6873 709.932C-90.3579 709.93 -91.0219 709.928 -91.6793 709.925L-91.6757 708.925L-93.6283 708.918L-93.6322 709.918C-94.3113 709.915 -94.9832 709.913 -95.648 709.91L-95.6439 708.91C-96.3131 708.907 -96.9751 708.904 -97.63 708.901L-97.6344 709.901C-98.2939 709.898 -98.9461 709.895 -99.5911 709.892L-99.5863 708.892L-100.705 708.887L-101.605 708.882L-101.611 709.882C-102.276 709.879 -102.933 709.875 -103.582 709.872L-103.577 708.872C-104.247 708.868 -104.909 708.864 -105.563 708.86L-105.569 709.86C-106.244 709.856 -106.91 709.852 -107.567 709.848L-107.561 708.848C-108.22 708.844 -108.871 708.839 -109.513 708.835L-109.52 709.835C-110.203 709.83 -110.877 709.825 -111.541 709.82L-111.533 708.82C-112.197 708.815 -112.851 708.81 -113.495 708.805L-113.503 709.805C-114.182 709.799 -114.851 709.794 -115.509 709.788L-115.501 708.788C-116.169 708.782 -116.827 708.776 -117.473 708.77L-117.483 709.77C-118.16 709.763 -118.825 709.757 -119.479 709.75L-119.469 708.75L-120.271 708.741C-120.666 708.737 -121.057 708.733 -121.444 708.729L-121.455 709.729C-122.134 709.721 -122.8 709.713 -123.452 709.705L-123.44 708.705C-124.109 708.697 -124.765 708.688 -125.407 708.68L-125.42 709.68C-126.104 709.67 -126.773 709.661 -127.427 709.651L-127.412 708.651C-128.08 708.641 -128.733 708.631 -129.369 708.621L-129.386 709.621C-130.073 709.609 -130.742 709.598 -131.393 709.586L-131.374 708.586C-132.056 708.574 -132.718 708.561 -133.36 708.548L-133.38 709.548C-134.056 709.534 -134.711 709.52 -135.344 709.505L-135.321 708.506C-136.01 708.49 -136.674 708.474 -137.313 708.457L-137.339 709.457C-138.033 709.439 -138.697 709.42 -139.335 709.401L-139.305 708.401C-139.998 708.38 -140.658 708.359 -141.286 708.337L-141.322 709.336C-142.022 709.311 -142.682 709.286 -143.305 709.259L-143.263 708.26C-143.968 708.23 -144.624 708.2 -145.232 708.168L-145.284 709.166C-146.003 709.128 -146.657 709.089 -147.249 709.048L-147.18 708.05C-147.936 707.998 -148.586 707.944 -149.139 707.887L-149.241 708.882C-150.113 708.792 -150.761 708.695 -151.208 708.592L-151.171 708.431L-151.048 707.899C-151.027 707.958 -151.012 708.025 -151.004 708.097C-150.99 708.238 -151.012 708.366 -151.049 708.472C-150.973 708.261 -150.845 707.877 -150.678 707.366L-151.628 707.055C-151.443 706.491 -151.205 705.753 -150.928 704.884L-149.975 705.188C-149.765 704.531 -149.533 703.799 -149.283 703.01L-150.237 702.708C-150.02 702.022 -149.79 701.293 -149.551 700.532L-148.597 700.831C-148.376 700.128 -148.148 699.399 -147.914 698.652L-148.869 698.354C-148.646 697.641 -148.419 696.912 -148.19 696.175L-147.235 696.471C-147.123 696.109 -147.01 695.745 -146.897 695.381C-146.803 695.078 -146.7 694.755 -146.589 694.414L-147.539 694.104C-147.343 693.502 -147.121 692.845 -146.877 692.141L-145.932 692.469C-145.72 691.856 -145.491 691.207 -145.245 690.525L-146.186 690.187C-145.962 689.563 -145.725 688.913 -145.477 688.24L-144.539 688.587C-144.308 687.961 -144.067 687.316 -143.817 686.654L-144.753 686.301C-144.515 685.67 -144.27 685.024 -144.017 684.366L-143.084 684.724C-142.842 684.092 -142.593 683.449 -142.339 682.796L-143.271 682.433C-143.025 681.799 -142.773 681.156 -142.517 680.506L-141.586 680.873C-141.442 680.507 -141.297 680.14 -141.15 679.77C-141.042 679.499 -140.934 679.226 -140.825 678.953L-141.754 678.582C-141.499 677.945 -141.242 677.304 -140.982 676.66L-140.055 677.035C-139.798 676.398 -139.539 675.759 -139.277 675.12L-140.203 674.742C-139.942 674.103 -139.68 673.464 -139.416 672.826L-138.492 673.208C-138.229 672.57 -137.964 671.934 -137.699 671.3L-138.622 670.914C-138.354 670.274 -138.087 669.637 -137.819 669.005L-136.898 669.395C-136.628 668.756 -136.358 668.121 -136.089 667.494L-137.008 667.1C-136.733 666.459 -136.459 665.825 -136.187 665.2L-135.27 665.599C-135.196 665.428 -135.122 665.259 -135.049 665.09C-134.985 664.944 -134.921 664.798 -134.858 664.653C-134.771 664.456 -134.685 664.259 -134.599 664.062C-134.545 663.937 -134.491 663.812 -134.437 663.687L-135.355 663.29C-135.078 662.651 -134.802 662.007 -134.528 661.361L-133.608 661.751C-133.334 661.105 -133.063 660.457 -132.794 659.808L-133.718 659.425C-133.449 658.778 -133.184 658.13 -132.921 657.483L-131.995 657.859C-131.729 657.206 -131.468 656.554 -131.21 655.905L-132.139 655.535C-131.879 654.88 -131.623 654.228 -131.372 653.582L-130.44 653.944C-130.183 653.282 -129.931 652.626 -129.685 651.978L-130.62 651.623C-130.368 650.959 -130.122 650.303 -129.883 649.657L-128.945 650.004C-128.697 649.332 -128.456 648.671 -128.223 648.024L-129.164 647.685C-128.921 647.009 -128.688 646.349 -128.465 645.706L-127.52 646.034C-127.281 645.347 -127.054 644.68 -126.84 644.037L-127.789 643.721C-127.557 643.024 -127.341 642.356 -127.143 641.722L-126.189 642.021C-125.962 641.298 -125.758 640.617 -125.578 639.986L-126.54 639.712C-126.325 638.956 -126.147 638.275 -126.011 637.682L-125.036 637.906C-124.946 637.515 -124.872 637.154 -124.816 636.827L-125.802 636.658L-124.816 636.827C-124.767 636.54 -124.718 636.208 -124.669 635.834L-125.661 635.704C-125.59 635.164 -125.518 634.522 -125.445 633.789L-124.45 633.888C-124.391 633.299 -124.331 632.652 -124.272 631.954L-125.268 631.869C-125.217 631.266 -125.165 630.624 -125.113 629.945L-124.116 630.021C-124.069 629.405 -124.022 628.759 -123.975 628.086L-124.973 628.017C-124.93 627.398 -124.887 626.756 -124.844 626.093L-123.846 626.158C-123.806 625.533 -123.765 624.889 -123.725 624.228L-124.724 624.168C-124.686 623.54 -124.648 622.896 -124.61 622.238L-123.612 622.295C-123.576 621.665 -123.541 621.021 -123.505 620.366L-124.504 620.313C-124.47 619.681 -124.436 619.038 -124.403 618.385L-123.404 618.436C-123.372 617.8 -123.34 617.156 -123.309 616.503L-124.308 616.455C-124.277 615.82 -124.247 615.178 -124.217 614.529L-123.218 614.575C-123.206 614.312 -123.194 614.048 -123.182 613.783C-123.165 613.405 -123.148 613.025 -123.132 612.644L-124.131 612.6C-124.103 611.962 -124.076 611.318 -124.049 610.67L-123.05 610.711C-123.034 610.31 -123.017 609.908 -123.001 609.504C-122.992 609.264 -122.982 609.023 -122.973 608.781L-123.972 608.742C-123.947 608.103 -123.923 607.46 -123.899 606.814L-122.9 606.851C-122.876 606.209 -122.853 605.565 -122.831 604.919L-123.83 604.885C-123.808 604.243 -123.786 603.6 -123.766 602.955L-122.766 602.987C-122.745 602.344 -122.725 601.7 -122.706 601.056L-123.705 601.026C-123.686 600.383 -123.667 599.739 -123.649 599.096L-122.649 599.124C-122.64 598.802 -122.632 598.48 -122.623 598.159C-122.618 597.958 -122.612 597.756 -122.607 597.554C-122.603 597.417 -122.599 597.281 -122.595 597.143L-123.595 597.115C-123.575 596.439 -123.554 595.759 -123.533 595.075L-122.533 595.107C-122.511 594.433 -122.489 593.754 -122.464 593.073L-123.464 593.038C-123.44 592.361 -123.415 591.681 -123.389 591L-122.389 591.039C-122.363 590.362 -122.336 589.683 -122.308 589.004L-123.307 588.962C-123.279 588.284 -123.25 587.604 -123.22 586.925L-122.221 586.969C-122.191 586.291 -122.16 585.612 -122.128 584.935L-123.127 584.888C-123.095 584.207 -123.062 583.528 -123.028 582.851L-122.03 582.9C-121.996 582.22 -121.961 581.542 -121.925 580.867L-122.924 580.814C-122.888 580.132 -122.851 579.454 -122.814 578.779L-121.815 578.834C-121.777 578.152 -121.739 577.474 -121.699 576.801L-122.698 576.742C-122.658 576.058 -122.617 575.379 -122.576 574.706L-121.577 574.767C-121.548 574.296 -121.519 573.828 -121.49 573.364C-121.476 573.154 -121.463 572.944 -121.449 572.736L-122.447 572.671C-122.403 571.985 -122.358 571.306 -122.312 570.637L-121.315 570.705C-121.268 570.017 -121.22 569.339 -121.172 568.672L-122.17 568.601C-122.12 567.912 -122.07 567.235 -122.02 566.571L-121.023 566.647C-120.97 565.954 -120.917 565.276 -120.864 564.614L-121.861 564.534C-121.805 563.84 -121.748 563.164 -121.692 562.506L-120.695 562.592C-120.635 561.893 -120.575 561.216 -120.514 560.563L-121.51 560.471C-121.444 559.765 -121.378 559.087 -121.312 558.44L-120.317 558.541C-120.245 557.83 -120.173 557.157 -120.101 556.525L-121.095 556.412C-121.012 555.683 -120.929 555.006 -120.847 554.388L-119.856 554.52C-119.809 554.171 -119.763 553.841 -119.717 553.532C-119.669 553.208 -119.621 552.866 -119.572 552.508L-120.563 552.373C-120.478 551.744 -120.391 551.062 -120.303 550.332L-119.31 550.451C-119.232 549.802 -119.153 549.116 -119.074 548.396L-120.068 548.287C-119.996 547.632 -119.924 546.949 -119.851 546.241L-118.857 546.342C-118.789 545.679 -118.721 544.993 -118.653 544.288L-119.648 544.192C-119.584 543.525 -119.52 542.84 -119.456 542.139L-118.46 542.23C-118.399 541.56 -118.338 540.876 -118.278 540.18L-119.274 540.093C-119.216 539.42 -119.158 538.736 -119.1 538.041L-118.103 538.124C-118.047 537.448 -117.992 536.763 -117.937 536.07L-118.933 535.991C-118.88 535.314 -118.826 534.629 -118.774 533.938L-117.777 534.014C-117.746 533.617 -117.716 533.218 -117.687 532.818C-117.665 532.533 -117.644 532.247 -117.623 531.96L-118.621 531.887C-118.571 531.206 -118.522 530.521 -118.474 529.833L-117.476 529.903C-117.429 529.221 -117.382 528.535 -117.336 527.848L-118.333 527.781C-118.288 527.098 -118.243 526.413 -118.199 525.727L-117.201 525.791C-117.157 525.106 -117.114 524.42 -117.072 523.734L-118.07 523.673C-118.028 522.987 -117.987 522.302 -117.948 521.619L-116.95 521.676C-116.91 520.989 -116.871 520.303 -116.833 519.619L-117.832 519.565C-117.794 518.876 -117.758 518.19 -117.723 517.509L-116.724 517.56C-116.706 517.212 -116.688 516.865 -116.671 516.519C-116.654 516.179 -116.638 515.839 -116.621 515.502L-117.62 515.454C-117.587 514.762 -117.556 514.076 -117.526 513.397L-116.527 513.441C-116.511 513.097 -116.497 512.754 -116.482 512.414C-116.474 512.22 -116.466 512.028 -116.458 511.836C-116.451 511.679 -116.444 511.521 -116.438 511.365L-117.437 511.322C-117.406 510.614 -117.375 509.92 -117.344 509.238L-116.345 509.284C-116.313 508.577 -116.281 507.885 -116.248 507.206L-117.247 507.158C-117.212 506.448 -117.177 505.753 -117.142 505.072L-116.144 505.123C-116.107 504.414 -116.07 503.72 -116.032 503.041L-117.031 502.985C-116.991 502.276 -116.952 501.583 -116.911 500.905L-115.913 500.965C-115.87 500.255 -115.827 499.562 -115.783 498.886L-116.781 498.821C-116.735 498.109 -116.688 497.416 -116.639 496.74L-115.642 496.811C-115.591 496.1 -115.54 495.409 -115.487 494.736L-116.484 494.658C-116.428 493.946 -116.371 493.255 -116.312 492.582L-115.316 492.669C-115.254 491.958 -115.191 491.269 -115.126 490.599L-116.121 490.502C-116.051 489.788 -115.98 489.097 -115.906 488.425L-114.912 488.535C-114.834 487.826 -114.754 487.141 -114.671 486.477L-115.664 486.353C-115.575 485.641 -115.483 484.953 -115.388 484.286L-114.398 484.427C-114.298 483.723 -114.194 483.044 -114.086 482.387L-115.073 482.225C-114.957 481.517 -114.836 480.832 -114.711 480.168L-113.728 480.353C-113.597 479.66 -113.461 478.99 -113.318 478.338L-114.295 478.125C-114.144 477.429 -113.985 476.753 -113.82 476.092L-112.85 476.335C-112.766 476 -112.68 475.669 -112.592 475.342C-112.5 474.999 -112.408 474.642 -112.316 474.275L-113.286 474.032C-113.119 473.364 -112.952 472.656 -112.786 471.917L-111.81 472.137C-111.655 471.446 -111.501 470.729 -111.349 469.994L-112.328 469.792C-112.185 469.096 -112.044 468.383 -111.906 467.659L-110.923 467.846C-110.788 467.137 -110.656 466.418 -110.528 465.695L-111.513 465.521C-111.387 464.808 -111.265 464.092 -111.148 463.377L-110.161 463.539C-110.043 462.814 -109.929 462.092 -109.822 461.377L-110.811 461.229C-110.702 460.501 -110.6 459.782 -110.504 459.077L-109.513 459.21C-109.413 458.467 -109.321 457.74 -109.239 457.036L-110.232 456.92C-110.144 456.169 -110.068 455.446 -110.003 454.758L-109.008 454.851C-108.972 454.475 -108.941 454.109 -108.913 453.754L-108.842 452.84L-109.839 452.763L-109.697 450.935L-108.7 451.013L-108.558 449.185L-109.555 449.108L-109.413 447.28L-108.416 447.357L-108.274 445.53L-109.271 445.452L-109.129 443.625L-108.132 443.702L-108.106 443.364L-107.939 443.284L-108.077 442.996L-108.061 442.788L-108.181 442.779L-108.371 442.382L-106.997 441.724L-106.565 442.626L-105.191 441.968L-105.622 441.066L-104.248 440.409L-103.816 441.311L-103.13 440.982C-103.13 440.982 -103.13 440.982 -103.129 440.982C-102.834 440.84 -102.502 440.679 -102.138 440.501L-102.578 439.603C-102.001 439.32 -101.341 438.993 -100.619 438.63L-100.17 439.524C-99.5585 439.217 -98.9025 438.886 -98.2143 438.537L-98.6672 437.645C-98.0414 437.327 -97.3888 436.994 -96.7184 436.65L-96.2622 437.54C-95.6265 437.214 -94.975 436.879 -94.3154 436.538L-94.7744 435.65C-94.1325 435.318 -93.4828 434.981 -92.8326 434.643L-92.3709 435.53C-91.722 435.192 -91.0724 434.853 -90.4295 434.515L-90.8939 433.63C-90.2396 433.287 -89.5921 432.946 -88.9589 432.611L-88.4913 433.495C-88.1648 433.322 -87.842 433.151 -87.5241 432.982C-87.2515 432.837 -86.964 432.686 -86.6628 432.531L-87.1215 431.642C-86.5746 431.36 -85.9845 431.062 -85.3574 430.751L-84.9132 431.647C-84.3525 431.369 -83.7616 431.08 -83.1452 430.783L-83.5794 429.882C-83.0058 429.606 -82.4105 429.322 -81.7973 429.033L-81.3708 429.937C-80.7911 429.664 -80.1952 429.386 -79.5862 429.104L-80.0062 428.196C-79.4184 427.924 -78.8185 427.649 -78.2094 427.372L-77.795 428.282C-77.2043 428.013 -76.6048 427.742 -75.9991 427.47L-76.4084 426.558C-75.8118 426.29 -75.2093 426.022 -74.6034 425.754L-74.199 426.668C-73.6001 426.404 -72.9977 426.139 -72.3943 425.876L-72.7939 424.959C-72.1895 424.696 -71.5841 424.434 -70.9801 424.175L-70.5854 425.093C-69.9789 424.833 -69.3737 424.575 -68.7724 424.321L-69.1619 423.4C-68.5496 423.141 -67.9412 422.885 -67.3392 422.635L-66.9553 423.558C-66.3404 423.303 -65.7325 423.052 -65.1341 422.808L-65.5119 421.882C-64.89 421.629 -64.2784 421.382 -63.6799 421.143L-63.3094 422.072C-63.0013 421.949 -62.6968 421.828 -62.3963 421.71C-62.0789 421.585 -61.7594 421.457 -61.4379 421.327L-61.8138 420.4C-61.1884 420.146 -60.5551 419.882 -59.9157 419.609L-59.5225 420.528C-58.8961 420.26 -58.2641 419.984 -57.6284 419.7L-58.0365 418.787C-57.4174 418.51 -56.7945 418.226 -56.1691 417.935L-55.7476 418.842C-55.1265 418.553 -54.5032 418.258 -53.8792 417.958L-54.3129 417.057C-53.6983 416.761 -53.0828 416.46 -52.4681 416.154L-52.0231 417.05C-51.4073 416.744 -50.7922 416.434 -50.1794 416.12L-50.6352 415.23C-50.0251 414.917 -49.4172 414.601 -48.8129 414.283L-48.3468 415.168C-47.7355 414.846 -47.1278 414.521 -46.5254 414.195L-47.0017 413.315C-46.3961 412.987 -45.7959 412.658 -45.2024 412.327L-44.7159 413.201C-44.1096 412.863 -43.5103 412.525 -42.9197 412.187L-43.4167 411.319C-42.8144 410.974 -42.2213 410.629 -41.6391 410.286L-41.1312 411.147C-40.5277 410.792 -39.9356 410.437 -39.3568 410.085L-39.8765 409.231C-39.2807 408.868 -38.6992 408.508 -38.1343 408.153L-37.6015 408.999C-37.0001 408.62 -36.4168 408.246 -35.8543 407.877L-36.4023 407.041C-35.8106 406.653 -35.2425 406.272 -34.701 405.9L-34.1346 406.724C-33.534 406.311 -32.9644 405.908 -32.43 405.517L-33.0206 404.71C-32.429 404.277 -31.883 403.86 -31.3881 403.464L-30.7624 404.244C-30.1525 403.754 -29.6098 403.288 -29.1478 402.85L-29.8353 402.124C-29.2115 401.534 -28.7579 401.013 -28.5027 400.581L-27.6413 401.089C-27.3718 400.631 -27.0459 399.863 -27.4569 399.124M57.2905 326.722L-28.3308 399.61M57.2905 326.722L56.3941 326.279L56.6802 325.7L56.6724 324.82L57.6724 324.811L57.6528 322.574L56.6528 322.582L56.6332 320.345L57.6331 320.336L57.6135 318.099L56.6135 318.108L56.5939 315.871L57.5939 315.862L57.5742 313.624L56.5743 313.633L56.5546 311.396L57.5546 311.387L57.535 309.15L56.535 309.159L56.5252 308.04C56.5222 307.693 56.519 307.353 56.5157 307.019L57.5157 307.009C57.5088 306.308 57.5013 305.633 57.4929 304.984L56.493 304.997C56.4839 304.293 56.4738 303.619 56.4625 302.973L57.4624 302.955C57.4499 302.246 57.436 301.57 57.4202 300.925L56.4205 300.95C56.4032 300.241 56.3836 299.57 56.3614 298.933L57.3608 298.898C57.3358 298.182 57.3074 297.509 57.2749 296.873L56.2762 296.924C56.2398 296.211 56.1984 295.548 56.151 294.928L57.1481 294.852C57.0928 294.128 57.0294 293.459 56.9564 292.835L55.9632 292.951C55.8805 292.244 55.7859 291.601 55.6775 291.005L56.6614 290.827C56.5327 290.119 56.3843 289.468 56.2129 288.851L55.2493 289.119C55.0731 288.484 54.8712 287.886 54.6388 287.293L55.5699 286.928C55.3287 286.313 55.0571 285.705 54.7508 285.074L53.8511 285.511C53.7114 285.223 53.5636 284.928 53.4071 284.625C53.2686 284.356 53.1253 284.086 52.9775 283.816L53.8549 283.336C53.5578 282.793 53.2436 282.249 52.9143 281.706L52.0593 282.224C51.744 281.705 51.4142 281.185 51.0716 280.668L51.9053 280.116C51.5606 279.596 51.2037 279.078 50.8363 278.565L50.0232 279.147C49.6656 278.648 49.2977 278.152 48.9211 277.663L49.7139 277.053C49.3312 276.555 48.9399 276.063 48.5416 275.579L47.7692 276.214C47.376 275.736 46.976 275.265 46.5708 274.804L47.3224 274.144C46.9057 273.669 46.4836 273.204 46.0579 272.749L45.3282 273.433C44.9018 272.978 44.472 272.535 44.0406 272.104L44.7468 271.396C44.2956 270.946 43.8424 270.51 43.3894 270.09L42.7096 270.824C42.2495 270.397 41.7901 269.988 41.3339 269.598L41.9833 268.838C41.4931 268.419 41.0056 268.022 40.5234 267.649L39.9111 268.439C39.4111 268.052 38.9189 267.692 38.4377 267.363L39.0022 266.538C38.459 266.166 37.9267 265.83 37.4094 265.534L36.9123 266.402C36.3595 266.085 35.833 265.821 35.3382 265.611L35.7283 264.69C35.0928 264.421 34.492 264.229 33.9357 264.124L33.7503 265.107C33.475 265.055 33.2262 265.031 33.0033 265.031C32.6172 265.031 32.2364 264.988 31.8731 264.911L32.0811 263.933C31.4213 263.793 30.826 263.511 30.4159 263.152L29.757 263.904C29.4067 263.597 29.0918 263.196 28.9395 262.703C28.935 262.695 28.9243 262.679 28.9032 262.654C28.8554 262.597 28.7711 262.515 28.633 262.412L29.2298 261.61C28.8026 261.292 28.1816 260.966 27.3771 260.634L26.9954 261.558C26.4584 261.336 25.8254 261.108 25.0971 260.875L25.402 259.922C24.7895 259.726 24.1182 259.529 23.3899 259.331L23.1278 260.296C22.5028 260.127 21.8334 259.956 21.1209 259.785L21.3545 258.813C20.7065 258.657 20.0246 258.501 19.3098 258.346L19.0973 259.323C18.445 259.181 17.7644 259.039 17.0562 258.898L17.2521 257.917C16.5887 257.785 15.9019 257.653 15.1922 257.521L15.0098 258.504C14.3454 258.381 13.6605 258.258 12.9556 258.136L13.1265 257.151C12.4539 257.034 11.7636 256.918 11.0558 256.802L10.895 257.789C10.5549 257.734 10.2107 257.679 9.86246 257.624C9.57626 257.578 9.2858 257.535 8.99242 257.495L9.12985 256.504C8.54135 256.422 7.94278 256.35 7.34485 256.288L7.24088 257.282C6.65015 257.22 6.06003 257.168 5.4814 257.126L5.55363 256.129C4.9386 256.085 4.33611 256.051 3.75856 256.03L3.72116 257.029C3.09935 257.006 2.51015 256.996 1.96953 257.001L1.9603 256.001C1.2836 256.008 0.675339 256.036 0.164856 256.086L0.263824 257.081C-0.0543671 257.113 -0.310333 257.152 -0.50386 257.196C-0.759003 257.253 -1.05394 257.31 -1.37875 257.367L-1.55106 256.382C-2.03189 256.466 -2.59727 256.552 -3.2213 256.637L-3.08693 257.627C-3.61774 257.699 -4.1889 257.77 -4.78502 257.839L-4.89868 256.845C-5.44109 256.907 -6.00539 256.967 -6.57977 257.023L-6.48203 258.019C-7.04224 258.074 -7.61192 258.125 -8.1804 258.173L-8.26323 257.176C-8.83008 257.223 -9.39561 257.266 -9.94896 257.303L-9.88249 258.3C-10.1702 258.32 -10.455 258.337 -10.7351 258.353C-11.0638 258.372 -11.4085 258.402 -11.7673 258.443L-11.8803 257.449C-12.5669 257.527 -13.2932 257.642 -14.0457 257.788L-13.8554 258.769C-14.5294 258.9 -15.2275 259.057 -15.9395 259.236L-16.1838 258.267C-16.8804 258.442 -17.5877 258.638 -18.2964 258.851L-18.0088 259.809C-18.6924 260.014 -19.3777 260.236 -20.0559 260.469L-20.3819 259.524C-21.0784 259.764 -21.7673 260.017 -22.4395 260.28L-22.0757 261.211C-22.7586 261.478 -23.4229 261.754 -24.0587 262.036L-24.4636 261.121C-25.1597 261.43 -25.8237 261.745 -26.4433 262.062M57.2905 326.722L-26.4433 262.062M-27.4569 399.124L-28.3308 399.61M-27.4569 399.124C-27.4567 399.124 -27.4565 399.125 -27.4563 399.125L-28.3308 399.61M-27.4569 399.124C-27.6986 398.689 -28.126 398.418 -28.4642 398.247L-28.9152 399.139M-28.3308 399.61C-28.4226 399.445 -28.625 399.286 -28.9152 399.139M-28.9152 399.139C-29.2751 398.957 -29.7701 398.794 -30.3563 398.66L-30.1325 397.685C-30.6237 397.572 -31.1654 397.48 -31.7363 397.411L-31.856 398.404M-28.9152 399.139L-31.856 398.404M-31.856 398.404C-32.339 398.345 -32.8493 398.304 -33.3728 398.284L-33.3338 397.285C-33.5977 397.274 -33.8648 397.269 -34.1336 397.269C-34.4634 397.269 -34.7799 397.261 -35.0843 397.245L-35.1372 398.244C-35.8429 398.207 -36.5008 398.126 -37.1183 397.989L-36.9015 397.012C-37.5006 396.879 -38.0432 396.69 -38.545 396.435L-38.9989 397.326C-39.5773 397.031 -40.1185 396.656 -40.6319 396.184L-39.9551 395.448C-40.3561 395.079 -40.7471 394.635 -41.1324 394.098L-41.9449 394.681C-42.3048 394.179 -42.6531 393.613 -42.9941 392.976L-42.1124 392.504C-42.3901 391.985 -42.6655 391.41 -42.9406 390.775L-43.8583 391.172C-44.1073 390.597 -44.3542 389.978 -44.6006 389.312L-43.6628 388.965C-43.8767 388.387 -44.091 387.772 -44.3069 387.115L-45.2568 387.428C-45.4554 386.825 -45.6547 386.189 -45.8557 385.52L-44.8979 385.233C-45.0799 384.627 -45.2635 383.993 -45.4494 383.329L-46.4124 383.598C-46.5861 382.978 -46.7616 382.333 -46.9394 381.661L-45.9727 381.405C-46.1361 380.788 -46.3017 380.148 -46.4697 379.485L-47.4391 379.731C-47.5977 379.105 -47.7585 378.459 -47.9218 377.792L-46.9505 377.554C-47.1041 376.927 -47.2599 376.281 -47.4183 375.616L-48.3911 375.847C-48.5416 375.216 -48.6943 374.567 -48.8496 373.9L-47.8757 373.673C-47.9512 373.349 -48.0273 373.021 -48.1041 372.688L-48.3154 371.772L-49.2898 371.997C-49.4312 371.384 -49.572 370.773 -49.7118 370.165L-48.7373 369.941C-48.8788 369.326 -49.0193 368.715 -49.1583 368.109L-50.133 368.333C-50.2747 367.715 -50.4149 367.104 -50.5533 366.5L-49.5786 366.277C-49.7205 365.658 -49.8604 365.046 -49.9978 364.445L-50.9727 364.668C-51.1149 364.046 -51.2545 363.434 -51.391 362.836L-50.416 362.613C-50.5588 361.987 -50.6981 361.375 -50.8335 360.78L-51.8085 361.002C-51.9521 360.371 -52.0912 359.758 -52.2252 359.167L-51.2499 358.946C-51.3276 358.603 -51.4036 358.268 -51.4777 357.94C-51.5412 357.659 -51.6033 357.385 -51.6639 357.116L-52.6394 357.336C-52.786 356.687 -52.9242 356.073 -53.0528 355.5L-52.077 355.281C-52.2272 354.612 -52.3642 353.999 -52.4861 353.451L-53.4623 353.668C-53.6256 352.933 -53.7621 352.313 -53.8673 351.827L-52.89 351.615C-52.9762 351.218 -53.0404 350.915 -53.0808 350.715L-53.0808 350.715C-53.1539 350.353 -53.2374 350.012 -53.3383 349.693L-54.2917 349.995C-54.5144 349.291 -54.8151 348.78 -55.276 348.413L-54.6531 347.63C-55.2568 347.15 -55.9978 346.89 -56.8503 346.744L-57.0193 347.729C-57.5444 347.639 -58.1649 347.59 -58.9021 347.569L-58.8737 346.57C-59.1818 346.561 -59.5071 346.557 -59.8504 346.557C-60.261 346.557 -60.6345 346.553 -60.9764 346.542L-61.0068 347.542C-61.9544 347.513 -62.6962 347.437 -63.2963 347.266L-63.0221 346.304C-63.6062 346.138 -63.956 345.878 -64.2738 345.388L-65.1131 345.931C-65.4525 345.407 -65.7351 344.719 -66.0282 343.815L-65.077 343.507C-65.1822 343.182 -65.2901 342.826 -65.4044 342.431C-65.4834 342.158 -65.5608 341.87 -65.6361 341.569L-66.6062 341.812C-66.7492 341.241 -66.8837 340.63 -67.0092 339.991L-66.0279 339.799C-66.1415 339.22 -66.2478 338.617 -66.346 337.997L-67.3336 338.154C-67.4295 337.549 -67.5176 336.931 -67.5975 336.308L-66.6056 336.181C-66.6833 335.575 -66.753 334.963 -66.8144 334.355L-67.8093 334.455C-67.8723 333.83 -67.9265 333.209 -67.9715 332.598L-66.9742 332.524C-67.0204 331.898 -67.0566 331.284 -67.0824 330.691L-68.0814 330.735C-68.1097 330.085 -68.1257 329.459 -68.1286 328.87L-67.1286 328.865C-67.1318 328.207 -67.1183 327.601 -67.0878 327.065L-68.0862 327.008C-68.0439 326.263 -67.9697 325.633 -67.861 325.156L-66.8861 325.379C-66.8481 325.212 -66.8107 325.095 -66.7791 325.017C-66.7707 324.996 -66.7636 324.981 -66.7583 324.97C-66.7324 324.951 -66.6741 324.91 -66.5672 324.849C-66.4024 324.756 -66.1767 324.646 -65.8932 324.526L-66.284 323.606C-65.5683 323.302 -64.6201 322.979 -63.594 322.694L-63.3266 323.657C-62.8929 323.537 -62.445 323.424 -61.9958 323.322C-61.6662 323.248 -61.3495 323.176 -61.0515 323.101L-61.2965 322.131C-60.5994 321.955 -60.0299 321.766 -59.5422 321.469L-59.0219 322.323C-58.3694 321.925 -57.8473 321.385 -57.3991 320.633L-58.2582 320.121C-57.99 319.671 -57.7404 319.111 -57.4918 318.405L-56.5486 318.737C-56.3562 318.19 -56.1677 317.57 -55.9756 316.866L-56.9403 316.603C-56.7912 316.056 -56.638 315.45 -56.4773 314.779L-55.5048 315.011C-55.3684 314.442 -55.2271 313.826 -55.0788 313.162L-56.0548 312.944C-55.9266 312.369 -55.7928 311.756 -55.6521 311.102L-54.6744 311.312C-54.549 310.729 -54.4183 310.113 -54.2812 309.464L-55.2597 309.257C-55.1363 308.672 -55.0077 308.06 -54.8733 307.417L-53.8945 307.622L-53.6997 306.691L-54.6718 306.487L-53.6997 306.691C-53.6256 306.336 -53.5503 305.978 -53.4739 305.619L-54.4521 305.411C-54.3013 304.701 -54.1465 303.983 -53.9888 303.261L-53.0118 303.475C-52.8562 302.763 -52.6977 302.047 -52.5375 301.333L-53.5133 301.114C-53.3523 300.397 -53.1896 299.68 -53.0263 298.97L-52.0517 299.194C-51.8862 298.474 -51.7202 297.76 -51.5546 297.057L-52.528 296.828C-52.357 296.102 -52.1866 295.387 -52.018 294.689L-51.046 294.924C-50.8696 294.194 -50.6953 293.482 -50.5245 292.794L-51.4949 292.553C-51.3106 291.812 -51.1303 291.098 -50.9559 290.42L-49.9874 290.67C-49.7937 289.917 -49.6074 289.209 -49.4311 288.557L-50.3965 288.296C-50.1824 287.503 -49.9825 286.791 -49.8015 286.177L-48.8423 286.459C-48.7288 286.075 -48.6238 285.732 -48.5282 285.436C-48.4333 285.141 -48.334 284.848 -48.2305 284.555L-49.1733 284.222C-48.9606 283.621 -48.731 283.024 -48.4861 282.435L-47.5626 282.818C-47.3241 282.244 -47.0706 281.676 -46.8037 281.117L-47.7063 280.686C-47.4302 280.107 -47.1404 279.538 -46.8385 278.98L-45.9589 279.455C-45.6608 278.904 -45.3508 278.364 -45.0308 277.839L-45.885 277.319C-45.5493 276.767 -45.2026 276.23 -44.847 275.71L-44.0216 276.275C-43.6658 275.754 -43.3012 275.252 -42.93 274.771L-43.7219 274.16C-43.3238 273.644 -42.9177 273.151 -42.506 272.682L-41.7549 273.342C-41.3369 272.867 -40.9145 272.42 -40.4906 272.005L-41.1899 271.29C-40.717 270.828 -40.2402 270.401 -39.7629 270.014L-39.1336 270.792C-38.6426 270.394 -38.1566 270.046 -37.6801 269.751L-38.2066 268.901C-37.6316 268.545 -37.0613 268.255 -36.5019 268.038L-36.1411 268.971C-35.8704 268.866 -35.6075 268.783 -35.3532 268.721C-34.8772 268.605 -34.4042 268.463 -33.9485 268.305L-34.2772 267.36C-33.3258 267.029 -32.4487 266.615 -31.8023 266.199L-31.2607 267.04C-30.7439 266.707 -30.2078 266.279 -29.9244 265.77M-31.856 398.404L-30.7985 265.284M-29.9244 265.77L-30.7985 265.284M-29.9244 265.77C-29.9245 265.77 -29.9246 265.77 -29.9247 265.77L-30.7985 265.284M-29.9244 265.77C-29.8429 265.623 -29.6852 265.421 -29.4182 265.169L-30.1049 264.442M-30.7985 265.284C-30.6498 265.017 -30.4146 264.734 -30.1049 264.442M-30.1049 264.442C-29.6615 264.023 -29.0654 263.583 -28.3518 263.136L-27.8209 263.983C-27.2822 263.646 -26.666 263.299 -25.9876 262.952L-26.4433 262.062M-30.1049 264.442L-26.4433 262.062M150.555 708.505C150.476 708.685 150.442 708.911 150.508 709.149C150.555 709.143 150.6 709.137 150.643 709.131L150.555 708.505ZM150.644 708.347C150.641 708.35 150.639 708.354 150.636 708.358L150.872 708.194C150.86 708.178 150.849 708.161 150.837 708.144C150.782 708.186 150.71 708.252 150.644 708.347ZM151.166 696.193C151.175 695.931 151.188 695.676 151.207 695.431L151.973 695.489C151.982 695.704 151.988 695.934 151.992 696.178L151.166 696.193ZM151.687 694.411C151.767 694.409 151.839 694.397 151.904 694.379C151.893 694.261 151.88 694.152 151.867 694.054C151.859 693.998 151.851 693.944 151.843 693.895L151.46 693.959L151.411 693.967C151.383 694.088 151.357 694.219 151.333 694.357C151.434 694.393 151.552 694.416 151.687 694.411ZM151.269 698.422L151.212 698.421C151.212 698.423 151.212 698.424 151.212 698.426L151.269 698.422ZM151.389 699.914C151.385 699.891 151.381 699.868 151.377 699.845C151.389 699.841 151.401 699.837 151.414 699.834C151.598 699.781 151.765 699.789 151.907 699.825C151.908 699.825 151.909 699.825 151.909 699.825C151.873 700.232 151.827 700.517 151.774 700.668L151.542 700.587C151.492 700.441 151.441 700.218 151.389 699.914Z" stroke="#545454" stroke-width="2" stroke-dasharray="2 2"/>
<defs>
<radialGradient id="paint0_radial_88_82" cx="0" cy="0" r="1" gradientUnits="userSpaceOnUse" gradientTransform="translate(720 499) rotate(91.0472) scale(465.078 314.816)">
<stop stop-opacity="0"/>
<stop offset="0.526042" stop-opacity="0.71"/>
<stop offset="1"/>
</radialGradient>
</defs>
</svg>
