<svg width="332" height="154" viewBox="0 0 332 154" fill="none" xmlns="http://www.w3.org/2000/svg">
<circle cx="136" cy="30" r="30" fill="#030303"/>
<path d="M1.13636 106.784V102.727H20.25V106.784H13.125V126H8.26136V106.784H1.13636ZM45.3216 114.364C45.3216 116.902 44.8405 119.061 43.8784 120.841C42.9239 122.621 41.6208 123.981 39.9693 124.92C38.3254 125.852 36.4769 126.318 34.4239 126.318C32.3557 126.318 30.4996 125.848 28.8557 124.909C27.2117 123.97 25.9125 122.61 24.958 120.83C24.0034 119.049 23.5261 116.894 23.5261 114.364C23.5261 111.826 24.0034 109.667 24.958 107.886C25.9125 106.106 27.2117 104.75 28.8557 103.818C30.4996 102.879 32.3557 102.409 34.4239 102.409C36.4769 102.409 38.3254 102.879 39.9693 103.818C41.6208 104.75 42.9239 106.106 43.8784 107.886C44.8405 109.667 45.3216 111.826 45.3216 114.364ZM40.333 114.364C40.333 112.72 40.0867 111.333 39.5943 110.205C39.1095 109.076 38.4239 108.22 37.5375 107.636C36.6511 107.053 35.6133 106.761 34.4239 106.761C33.2345 106.761 32.1966 107.053 31.3102 107.636C30.4239 108.22 29.7345 109.076 29.242 110.205C28.7572 111.333 28.5148 112.72 28.5148 114.364C28.5148 116.008 28.7572 117.394 29.242 118.523C29.7345 119.652 30.4239 120.508 31.3102 121.091C32.1966 121.674 33.2345 121.966 34.4239 121.966C35.6133 121.966 36.6511 121.674 37.5375 121.091C38.4239 120.508 39.1095 119.652 39.5943 118.523C40.0867 117.394 40.333 116.008 40.333 114.364ZM53.2653 126H47.9926L56.0267 102.727H62.3676L70.3903 126H65.1176L59.2881 108.045H59.1063L53.2653 126ZM52.9358 116.852H65.3903V120.693H52.9358V116.852ZM86.8852 109.42C86.7943 108.504 86.4042 107.792 85.7148 107.284C85.0254 106.777 84.0898 106.523 82.908 106.523C82.1049 106.523 81.4269 106.636 80.8739 106.864C80.3208 107.083 79.8966 107.39 79.6011 107.784C79.3133 108.178 79.1693 108.625 79.1693 109.125C79.1542 109.542 79.2413 109.905 79.4307 110.216C79.6277 110.527 79.8966 110.795 80.2375 111.023C80.5784 111.242 80.9724 111.436 81.4193 111.602C81.8663 111.761 82.3436 111.898 82.8511 112.011L84.942 112.511C85.9572 112.739 86.889 113.042 87.7375 113.42C88.586 113.799 89.3208 114.265 89.942 114.818C90.5633 115.371 91.0443 116.023 91.3852 116.773C91.7337 117.523 91.9117 118.383 91.9193 119.352C91.9117 120.777 91.5481 122.011 90.8284 123.057C90.1163 124.095 89.086 124.902 87.7375 125.477C86.3966 126.045 84.7792 126.33 82.8852 126.33C81.0064 126.33 79.3701 126.042 77.9761 125.466C76.5898 124.89 75.5064 124.038 74.7261 122.909C73.9534 121.773 73.5481 120.367 73.5102 118.693H78.2716C78.3246 119.473 78.5481 120.125 78.942 120.648C79.3436 121.163 79.8777 121.553 80.5443 121.818C81.2186 122.076 81.9799 122.205 82.8284 122.205C83.6617 122.205 84.3852 122.083 84.9989 121.841C85.6201 121.598 86.1011 121.261 86.442 120.83C86.783 120.398 86.9534 119.902 86.9534 119.341C86.9534 118.818 86.7981 118.379 86.4875 118.023C86.1845 117.667 85.7375 117.364 85.1466 117.114C84.5633 116.864 83.8474 116.636 82.9989 116.432L80.4648 115.795C78.5027 115.318 76.9534 114.572 75.817 113.557C74.6807 112.542 74.1163 111.174 74.1239 109.455C74.1163 108.045 74.4913 106.814 75.2489 105.761C76.014 104.708 77.0633 103.886 78.3966 103.295C79.7299 102.705 81.2451 102.409 82.942 102.409C84.6693 102.409 86.1769 102.705 87.4648 103.295C88.7602 103.886 89.7678 104.708 90.4875 105.761C91.2072 106.814 91.5784 108.034 91.6011 109.42H86.8852ZM95.9426 106.784V102.727H115.056V106.784H107.931V126H103.068V106.784H95.9426ZM119.804 102.727H125.872L132.281 118.364H132.554L138.963 102.727H145.031V126H140.259V110.852H140.065L134.043 125.886H130.793L124.77 110.795H124.577V126H119.804V102.727ZM154.697 126H149.424L157.458 102.727H163.799L171.822 126H166.549L160.719 108.045H160.538L154.697 126ZM154.367 116.852H166.822V120.693H154.367V116.852ZM188.316 109.42C188.226 108.504 187.835 107.792 187.146 107.284C186.457 106.777 185.521 106.523 184.339 106.523C183.536 106.523 182.858 106.636 182.305 106.864C181.752 107.083 181.328 107.39 181.032 107.784C180.745 108.178 180.601 108.625 180.601 109.125C180.585 109.542 180.673 109.905 180.862 110.216C181.059 110.527 181.328 110.795 181.669 111.023C182.01 111.242 182.404 111.436 182.851 111.602C183.298 111.761 183.775 111.898 184.282 112.011L186.373 112.511C187.388 112.739 188.32 113.042 189.169 113.42C190.017 113.799 190.752 114.265 191.373 114.818C191.995 115.371 192.476 116.023 192.816 116.773C193.165 117.523 193.343 118.383 193.351 119.352C193.343 120.777 192.979 122.011 192.26 123.057C191.548 124.095 190.517 124.902 189.169 125.477C187.828 126.045 186.21 126.33 184.316 126.33C182.438 126.33 180.801 126.042 179.407 125.466C178.021 124.89 176.938 124.038 176.157 122.909C175.385 121.773 174.979 120.367 174.941 118.693H179.703C179.756 119.473 179.979 120.125 180.373 120.648C180.775 121.163 181.309 121.553 181.976 121.818C182.65 122.076 183.411 122.205 184.26 122.205C185.093 122.205 185.816 122.083 186.43 121.841C187.051 121.598 187.532 121.261 187.873 120.83C188.214 120.398 188.385 119.902 188.385 119.341C188.385 118.818 188.229 118.379 187.919 118.023C187.616 117.667 187.169 117.364 186.578 117.114C185.995 116.864 185.279 116.636 184.43 116.432L181.896 115.795C179.934 115.318 178.385 114.572 177.248 113.557C176.112 112.542 175.548 111.174 175.555 109.455C175.548 108.045 175.923 106.814 176.68 105.761C177.445 104.708 178.495 103.886 179.828 103.295C181.161 102.705 182.676 102.409 184.373 102.409C186.101 102.409 187.608 102.705 188.896 103.295C190.191 103.886 191.199 104.708 191.919 105.761C192.638 106.814 193.01 108.034 193.032 109.42H188.316ZM197.374 106.784V102.727H216.488V106.784H209.363V126H204.499V106.784H197.374ZM221.235 126V102.727H236.917V106.784H226.156V112.33H236.11V116.386H226.156V121.943H236.962V126H221.235ZM242.429 126V102.727H251.611C253.368 102.727 254.868 103.042 256.111 103.67C257.361 104.292 258.312 105.174 258.963 106.318C259.622 107.455 259.952 108.792 259.952 110.33C259.952 111.875 259.618 113.205 258.952 114.318C258.285 115.424 257.319 116.273 256.054 116.864C254.796 117.455 253.274 117.75 251.486 117.75H245.338V113.795H250.69C251.63 113.795 252.41 113.667 253.031 113.409C253.652 113.152 254.115 112.765 254.418 112.25C254.728 111.735 254.884 111.095 254.884 110.33C254.884 109.557 254.728 108.905 254.418 108.375C254.115 107.845 253.649 107.443 253.02 107.17C252.399 106.89 251.615 106.75 250.668 106.75H247.349V126H242.429ZM254.997 115.409L260.781 126H255.349L249.69 115.409H254.997ZM277.654 109.42C277.563 108.504 277.173 107.792 276.484 107.284C275.794 106.777 274.859 106.523 273.677 106.523C272.874 106.523 272.196 106.636 271.643 106.864C271.09 107.083 270.665 107.39 270.37 107.784C270.082 108.178 269.938 108.625 269.938 109.125C269.923 109.542 270.01 109.905 270.199 110.216C270.396 110.527 270.665 110.795 271.006 111.023C271.347 111.242 271.741 111.436 272.188 111.602C272.635 111.761 273.112 111.898 273.62 112.011L275.711 112.511C276.726 112.739 277.658 113.042 278.506 113.42C279.355 113.799 280.09 114.265 280.711 114.818C281.332 115.371 281.813 116.023 282.154 116.773C282.502 117.523 282.68 118.383 282.688 119.352C282.68 120.777 282.317 122.011 281.597 123.057C280.885 124.095 279.855 124.902 278.506 125.477C277.165 126.045 275.548 126.33 273.654 126.33C271.775 126.33 270.139 126.042 268.745 125.466C267.359 124.89 266.275 124.038 265.495 122.909C264.722 121.773 264.317 120.367 264.279 118.693H269.04C269.093 119.473 269.317 120.125 269.711 120.648C270.112 121.163 270.646 121.553 271.313 121.818C271.987 122.076 272.749 122.205 273.597 122.205C274.43 122.205 275.154 122.083 275.768 121.841C276.389 121.598 276.87 121.261 277.211 120.83C277.552 120.398 277.722 119.902 277.722 119.341C277.722 118.818 277.567 118.379 277.256 118.023C276.953 117.667 276.506 117.364 275.915 117.114C275.332 116.864 274.616 116.636 273.768 116.432L271.234 115.795C269.271 115.318 267.722 114.572 266.586 113.557C265.449 112.542 264.885 111.174 264.893 109.455C264.885 108.045 265.26 106.814 266.018 105.761C266.783 104.708 267.832 103.886 269.165 103.295C270.499 102.705 272.014 102.409 273.711 102.409C275.438 102.409 276.946 102.705 278.234 103.295C279.529 103.886 280.537 104.708 281.256 105.761C281.976 106.814 282.347 108.034 282.37 109.42H277.654Z" fill="#F1F1F1"/>
</svg>
